<svg width="149" height="130" viewBox="0 0 149 130" fill="none" xmlns="http://www.w3.org/2000/svg">
  <g mask="url(#mask0_5219_17517)">
  <path d="M144.315 84.0059H5V111.481H144.315V84.0059Z" fill="#1EC0E8"/>
  <path d="M21.1187 107.335H9.53125V87.9316H20.6776V91.4913H13.8791V95.7951H20.1992V99.3421H13.8791V103.779H21.1187V107.335Z" fill="white"/>
  <path d="M45.8246 87.9316L39.1676 107.335H34.2372L27.6592 87.9316H32.3483L36.3758 101.436C36.5731 102.065 36.7041 102.713 36.7669 103.37H36.85C36.9265 102.695 37.0658 102.03 37.2661 101.381L41.2687 87.9316H45.8246Z" fill="white"/>
  <path d="M65.246 107.335H53.6587V87.9316H64.805V91.4913H58.0107V95.7951H64.3307V99.3421H58.0107V103.779H65.246V107.335Z" fill="white"/>
  <path d="M91.2502 107.335H86.8561L78.8928 95.1432C78.5412 94.6247 78.2179 94.0876 77.9236 93.5348H77.8692C77.9385 94.2202 77.9743 95.2662 77.9772 96.6727V107.335H73.8667V87.9316H78.5561L86.2236 99.7436C86.573 100.279 86.8934 100.804 87.1929 101.327H87.2473C87.1527 100.442 87.1162 99.5514 87.1392 98.6611V87.9316H91.2502V107.335Z" fill="white"/>
  <path d="M114.758 91.4913H109.245V107.335H104.881V91.4913H99.4014V87.9316H114.763L114.758 91.4913Z" fill="white"/>
  <path d="M131.043 107.674C128.269 107.674 126.014 106.77 124.277 104.962C122.541 103.155 121.67 100.795 121.665 97.8846C121.665 94.8204 122.549 92.3396 124.319 90.4428C126.088 88.546 128.432 87.5977 131.35 87.5977C134.111 87.5977 136.34 88.5043 138.04 90.3177C139.741 92.131 140.593 94.5224 140.595 97.4913C140.595 100.541 139.711 103 137.945 104.866C136.178 106.732 133.877 107.668 131.043 107.674ZM131.23 91.3785C130.53 91.3532 129.835 91.497 129.202 91.7972C128.569 92.0975 128.018 92.5459 127.593 93.1047C126.695 94.255 126.246 95.777 126.246 97.6715C126.246 99.5653 126.695 101.085 127.593 102.229C128.026 102.751 128.566 103.172 129.178 103.462C129.789 103.752 130.456 103.904 131.131 103.909C131.808 103.913 132.476 103.769 133.091 103.487C133.706 103.205 134.252 102.792 134.692 102.276C135.573 101.189 136.014 99.6808 136.014 97.7505C136.014 95.742 135.587 94.1768 134.733 93.054C134.33 92.5087 133.799 92.0699 133.189 91.7771C132.579 91.4836 131.906 91.3435 131.23 91.3703V91.3785Z" fill="white"/>
  <path d="M10.8081 122.432V125.29H8.94824V117H11.8607C13.941 117 14.9826 117.88 14.9853 119.64C14.9976 120.024 14.9231 120.405 14.7674 120.756C14.6117 121.106 14.379 121.416 14.0867 121.663C13.4094 122.204 12.5584 122.477 11.6943 122.432H10.8081ZM10.8081 118.433V121.015H11.5403C12.5306 121.015 13.0257 120.58 13.0257 119.712C13.0257 118.842 12.5306 118.416 11.5403 118.433H10.8081Z" fill="black"/>
  <path d="M35.2432 125.29H33.2169L32.6303 123.446H29.6929L29.1104 125.29H27.0967L30.1048 117H32.31L35.2432 125.29ZM32.206 122.009L31.3197 119.222C31.2469 118.98 31.1994 118.731 31.1782 118.479H31.1325C31.1139 118.725 31.0665 118.968 30.991 119.201L30.0923 122.009H32.206Z" fill="black"/>
  <path d="M53.9877 124.996C53.2421 125.317 52.4349 125.467 51.6245 125.435C51.0763 125.464 50.528 125.379 50.0139 125.186C49.4999 124.993 49.0311 124.695 48.6371 124.311C48.267 123.911 47.9803 123.44 47.7938 122.927C47.6073 122.414 47.5249 121.869 47.5512 121.324C47.5263 120.731 47.6219 120.139 47.8323 119.584C48.0426 119.03 48.3631 118.524 48.7744 118.098C49.1893 117.681 49.6854 117.354 50.2316 117.139C50.7778 116.923 51.3624 116.823 51.949 116.845C52.6413 116.827 53.3313 116.932 53.9877 117.154V118.95C53.4152 118.614 52.7618 118.442 52.0987 118.453C51.7519 118.438 51.4059 118.497 51.0829 118.624C50.7598 118.751 50.4666 118.945 50.2223 119.193C49.9766 119.459 49.7868 119.773 49.6638 120.114C49.5409 120.456 49.4874 120.819 49.5066 121.181C49.471 121.885 49.7132 122.574 50.1807 123.099C50.4158 123.34 50.6989 123.528 51.0115 123.652C51.3242 123.775 51.6592 123.83 51.9947 123.813C52.6949 123.819 53.3837 123.635 53.9877 123.279V124.996Z" fill="black"/>
  <path d="M74.0792 125.29H71.7326L69.3236 121.7C69.2414 121.553 69.1691 121.401 69.1072 121.245H69.0781V125.302H67.2183V117H69.0781V120.919H69.1072C69.153 120.811 69.2279 120.656 69.3361 120.455L71.6161 117H73.8337L70.9545 120.952L74.0792 125.29Z" fill="black"/>
  <path d="M93.9212 125.29H91.9119L91.3249 123.446H88.3873L87.8048 125.29H85.791L88.7956 117H91.0001L93.9212 125.29ZM90.8801 122.009L89.9936 119.222C89.9243 118.979 89.8781 118.731 89.8565 118.479H89.8311C89.811 118.725 89.7626 118.968 89.6859 119.201L88.7911 122.009H90.8801Z" fill="black"/>
  <path d="M113.522 124.734C112.599 125.23 111.561 125.473 110.514 125.436C109.363 125.498 108.235 125.1 107.377 124.328C106.984 123.928 106.68 123.451 106.481 122.925C106.284 122.4 106.198 121.839 106.228 121.278C106.206 120.689 106.305 120.102 106.519 119.553C106.735 119.005 107.06 118.506 107.477 118.09C107.922 117.673 108.445 117.349 109.017 117.137C109.589 116.925 110.197 116.831 110.805 116.858C111.591 116.845 112.374 116.969 113.119 117.225V118.976C112.402 118.585 111.595 118.394 110.78 118.42C110.431 118.407 110.082 118.467 109.758 118.598C109.433 118.728 109.139 118.926 108.895 119.177C108.437 119.736 108.181 120.435 108.167 121.159C108.154 121.883 108.384 122.59 108.821 123.167C109.048 123.403 109.323 123.588 109.627 123.709C109.932 123.83 110.258 123.884 110.584 123.869C110.948 123.884 111.31 123.818 111.646 123.676V122.055H109.981V120.564H113.493L113.522 124.734Z" fill="black"/>
  <path d="M131.854 125.29H126.903V117H131.663V118.521H128.75V120.363H131.45V121.88H128.75V123.789H131.854V125.29Z" fill="black"/>
  <path d="M97.096 68.1764V70.0985L94.5742 69.501V69.948L97.6742 70.6833V68.1764C97.6801 68.1771 97.6853 68.1764 97.6906 68.1742C97.6965 68.1727 97.701 68.1697 97.7047 68.1652C97.7092 68.1615 97.7122 68.1563 97.7136 68.1511C97.7159 68.1459 97.7166 68.1399 97.7159 68.1347C97.7159 68.1295 97.7144 68.1235 97.7129 68.119C97.7107 68.1138 97.7069 68.1101 97.7032 68.1064C97.6995 68.1027 97.695 68.0997 97.6898 68.0982C97.6846 68.0967 97.6794 68.0959 97.6742 68.0967C97.6816 68.0393 97.6675 67.9812 97.6354 67.9328C97.6034 67.8844 97.555 67.8493 97.4991 67.8337C97.4432 67.8002 97.3985 67.751 97.3702 67.6914C97.3404 67.7503 97.2942 67.7994 97.2376 67.8337C97.1817 67.8493 97.1333 67.8844 97.1013 67.9328C97.0692 67.9812 97.0558 68.0393 97.0625 68.0967C97.0573 68.0959 97.0521 68.0967 97.0469 68.0982C97.0417 68.0997 97.0372 68.1027 97.0335 68.1064C97.0297 68.1101 97.026 68.1138 97.0238 68.119C97.0223 68.1235 97.0208 68.1295 97.0208 68.1347C97.0156 68.1444 97.0141 68.1563 97.0171 68.1675C97.0201 68.1779 97.0275 68.1876 97.0379 68.1928C97.0476 68.1988 97.0595 68.1995 97.07 68.1965C97.0811 68.1935 97.0901 68.1861 97.096 68.1764Z" fill="#1FC0E8"/>
  <path d="M88.8208 66.8071V67.1915H89.3155V67.7011C89.3676 67.8106 89.4302 67.9142 89.5032 68.0103C89.6403 68.1779 89.7074 68.3917 89.6902 68.6078V69.5025H89.1412V69.9495H94.2712V69.5107L94.558 69.5688V67.3837C94.5692 67.3837 94.5796 67.3793 94.5878 67.3718C94.5953 67.3636 94.5998 67.3532 94.5998 67.342C94.5998 67.3308 94.5953 67.3204 94.5878 67.3122C94.5796 67.3048 94.5692 67.3003 94.558 67.3003C94.5633 67.2437 94.5491 67.1863 94.5171 67.1394C94.485 67.0924 94.4381 67.0574 94.3837 67.041C94.3837 67.006 94.3696 66.9717 94.3442 66.9464C94.3196 66.9218 94.2854 66.9077 94.2504 66.9077C94.2146 66.9077 94.1811 66.9218 94.1565 66.9464C94.1312 66.9717 94.117 67.006 94.117 67.041C94.0626 67.0574 94.0157 67.0924 93.9837 67.1394C93.9516 67.1863 93.9375 67.2437 93.9427 67.3003C93.9315 67.3003 93.9211 67.3048 93.9129 67.3122C93.9054 67.3204 93.901 67.3308 93.901 67.342C93.901 67.3532 93.9054 67.3636 93.9129 67.3718C93.9211 67.3793 93.9315 67.3837 93.9427 67.3837H93.9926V69.4936H92.8647V68.5996C92.8565 68.4915 92.8699 68.3828 92.9049 68.28C92.9399 68.1771 92.9958 68.0825 93.0688 68.0021C93.147 67.9067 93.2156 67.8032 93.2722 67.6929V67.1833H93.7676V66.7989H93.4018C93.4018 65.5667 92.7902 65.2992 92.2031 65.0065C91.815 64.7782 91.5013 64.4414 91.3002 64.0371C91.0975 64.4411 90.7824 64.7777 90.3935 65.0065C89.8064 65.2992 89.1948 65.5667 89.1948 66.7989L88.8208 66.8071ZM91.4834 68.6078C91.476 68.4945 91.4961 68.3805 91.5423 68.2762C91.5892 68.1719 91.66 68.081 91.7494 68.0103C91.7427 67.9723 91.7442 67.9328 91.7546 67.8948C91.7643 67.8568 91.7829 67.8218 91.8075 67.792C91.8328 67.7622 91.8641 67.7376 91.8991 67.7212C91.9342 67.7048 91.9729 67.6959 92.0116 67.6959C92.0511 67.6959 92.0891 67.7048 92.1249 67.7212C92.1599 67.7376 92.1912 67.7622 92.2158 67.792C92.2411 67.8218 92.259 67.8568 92.2694 67.8948C92.2791 67.9328 92.2806 67.9723 92.2739 68.0103C92.3625 68.0818 92.4326 68.1734 92.478 68.277C92.5234 68.3813 92.5436 68.4945 92.5361 68.6078V69.5025H91.4961L91.4834 68.6078ZM90.0731 68.6078C90.0657 68.4945 90.0858 68.3813 90.1313 68.277C90.1767 68.1734 90.2467 68.0818 90.3354 68.0103C90.436 67.9194 90.5239 67.8158 90.5969 67.7011C90.6736 67.8151 90.763 67.9186 90.8636 68.0103C90.9515 68.0818 91.0215 68.1734 91.0677 68.277C91.1132 68.3813 91.1333 68.4945 91.1258 68.6078V69.5025H90.0731V68.6078Z" fill="#1FC0E8"/>
  <path d="M21.4013 63.7655H21.8173V63.3477H9.75146V64.0413H21.0726C21.0732 64.0004 21.0826 63.9602 21.1002 63.9234C21.1177 63.8866 21.1429 63.854 21.1741 63.8278C21.2052 63.8016 21.2417 63.7825 21.2809 63.7718C21.3201 63.761 21.3612 63.7588 21.4013 63.7655Z" fill="#1FC0E8"/>
  <path d="M22.5326 56.3008V59.096H22.4493C22.403 59.096 22.3585 59.1145 22.3257 59.1474C22.293 59.1803 22.2746 59.2249 22.2746 59.2715C22.2746 59.318 22.293 59.3627 22.3257 59.3956C22.3585 59.4285 22.403 59.4469 22.4493 59.4469H25.3618C25.4081 59.4469 25.4526 59.4285 25.4854 59.3956C25.5181 59.3627 25.5366 59.318 25.5366 59.2715C25.5366 59.2249 25.5181 59.1803 25.4854 59.1474C25.4526 59.1145 25.4081 59.096 25.3618 59.096H25.2786V56.3008C25.361 56.2916 25.4371 56.2521 25.4924 56.1901C25.5477 56.128 25.5782 56.0477 25.5782 55.9644C25.5782 55.8812 25.5477 55.8008 25.4924 55.7388C25.4371 55.6767 25.361 55.6373 25.2786 55.6281V55.4066C25.2786 54.688 23.8973 53 23.8973 53C23.8973 53 22.5159 54.6713 22.5159 55.4066V55.6281C22.4336 55.6373 22.3574 55.6767 22.3021 55.7388C22.2469 55.8008 22.2163 55.8812 22.2163 55.9644C22.2163 56.0477 22.2469 56.128 22.3021 56.1901C22.3574 56.2521 22.4336 56.2916 22.5159 56.3008H22.5326ZM24.6712 56.869C24.6712 56.7061 24.7544 56.5765 24.8584 56.5765C24.9624 56.5765 25.0456 56.7061 25.0456 56.869V58.0974H24.6712V56.869ZM23.6226 56.869C23.6226 56.8306 23.6302 56.7926 23.6448 56.7571C23.6594 56.7216 23.6809 56.6894 23.7079 56.6622C23.735 56.6351 23.7671 56.6135 23.8024 56.5988C23.8378 56.5841 23.8756 56.5765 23.9139 56.5765C23.9525 56.576 23.9908 56.5832 24.0266 56.5976C24.0624 56.6121 24.0951 56.6335 24.1225 56.6607C24.15 56.6879 24.1719 56.7204 24.1868 56.7561C24.2017 56.7919 24.2093 56.8303 24.2093 56.869V58.0974H23.6226V56.869ZM22.7905 56.869C22.7905 56.7061 22.8737 56.5765 22.9736 56.5765C23.0734 56.5765 23.1608 56.7061 23.1608 56.869V58.0974H22.7905V56.869Z" fill="#1FC0E8"/>
  <path d="M36.9914 76.303H36.5753C36.3673 71.2438 31.9986 70.5293 31.9986 70.5293C31.9986 70.5293 27.6133 71.2438 27.3928 76.303H27.0059V76.8551H27.9004C28.0876 76.8551 28.0419 76.5876 28.0419 76.5876C28.2125 76.5876 28.1916 76.303 28.1916 76.303H27.8838C28.0918 71.7995 31.9986 71.1432 31.9986 71.1432C31.9986 71.1432 35.8888 71.7824 36.1135 76.2867H35.8015C35.8015 76.2867 35.8015 76.5705 35.9554 76.5705C35.9554 76.5705 35.9055 76.838 36.0969 76.838H36.9914V76.303Z" fill="#1FC0E8"/>
  <path d="M111.504 58.5466H139.164V58.2333L139.451 57.9199H111.217L111.504 58.2333V58.5466Z" fill="#1FC0E8"/>
  <path d="M138.565 55.4219H112.104V57.5569H138.565V55.4219Z" fill="#1FC0E8"/>
  <path d="M137.791 52.5391H112.877V54.716H137.791V52.5391Z" fill="#1FC0E8"/>
  <path d="M130.831 46.3809H119.842V47.2624H130.831V46.3809Z" fill="#1FC0E8"/>
  <path d="M125.334 44.2461C123.888 44.2422 122.492 44.7783 121.419 45.7503H129.253C128.177 44.7794 126.781 44.2435 125.334 44.2461Z" fill="#1FC0E8"/>
  <path d="M111.595 60.1313H139.072L139.264 59.584H111.404L111.595 60.1313Z" fill="#1FC0E8"/>
  <path d="M135.831 47.7031H114.837V52.1947H135.831V47.7031ZM119.127 51.2253C118.891 51.2262 118.662 51.157 118.467 51.0267C118.271 50.8963 118.118 50.7107 118.028 50.4931C117.938 50.2757 117.913 50.0361 117.958 49.8048C118.004 49.5736 118.116 49.361 118.283 49.194C118.448 49.0271 118.659 48.9132 118.889 48.867C119.119 48.8207 119.358 48.844 119.575 48.934C119.792 49.024 119.977 49.1767 120.108 49.3726C120.238 49.5685 120.308 49.7989 120.308 50.0346C120.308 50.3497 120.184 50.6519 119.962 50.8751C119.741 51.0983 119.44 51.2242 119.127 51.2253ZM129.944 51.3382H127.822V51.5513H122.863V51.3382H120.74V48.7352H122.863V48.5179H127.822V48.7352H129.944V51.3382ZM131.55 51.2253C131.316 51.2253 131.086 51.1555 130.891 51.0247C130.696 50.8938 130.544 50.7079 130.454 50.4902C130.365 50.2727 130.341 50.0333 130.387 49.8022C130.433 49.5713 130.546 49.3591 130.711 49.1925C130.878 49.026 131.088 48.9126 131.319 48.8667C131.549 48.8207 131.787 48.8443 132.004 48.9345C132.221 49.0245 132.405 49.1772 132.536 49.373C132.666 49.5688 132.736 49.799 132.736 50.0346C132.736 50.1916 132.705 50.3472 132.645 50.4922C132.584 50.6372 132.496 50.7689 132.385 50.8796C132.274 50.9902 132.143 51.0777 131.998 51.1371C131.853 51.1965 131.698 51.2265 131.541 51.2253H131.55Z" fill="#1FC0E8"/>
  <path d="M116.605 67.7051H112.939V69.6018H116.605V67.7051Z" fill="#1FC0E8"/>
  <path d="M116.605 64.7227H112.939V65.4953H116.605V64.7227Z" fill="#1FC0E8"/>
  <path d="M114.695 63.1222C114.877 63.1222 115.055 63.068 115.206 62.9665C115.358 62.8651 115.475 62.7208 115.545 62.5522C115.615 62.3834 115.632 62.1978 115.597 62.0186C115.562 61.8395 115.474 61.675 115.346 61.5458C115.217 61.4167 115.053 61.3287 114.875 61.2931C114.696 61.2575 114.511 61.2758 114.344 61.3457C114.175 61.4156 114.031 61.5339 113.931 61.6858C113.83 61.8376 113.776 62.0161 113.776 62.1988C113.776 62.4437 113.873 62.6785 114.045 62.8517C114.218 63.0249 114.452 63.1222 114.695 63.1222Z" fill="#1FC0E8"/>
  <path d="M118.773 60.6986V60.5148H110.772V61.8435H110.485V61.5844H110.269V60.6568C110.263 60.598 110.271 60.5388 110.29 60.4828C110.308 60.4268 110.338 60.3752 110.377 60.3309C110.419 60.2796 110.455 60.2235 110.485 60.1638V59.8881H110.9C110.941 59.8881 110.979 59.8722 111.007 59.844C111.035 59.8158 111.05 59.7775 111.05 59.7377C111.051 59.6973 111.035 59.6586 111.007 59.6298C110.979 59.6009 110.941 59.5841 110.9 59.5831H110.576C110.596 59.371 110.543 59.1583 110.425 58.9816C110.307 58.8047 110.13 58.6747 109.927 58.6137C109.927 58.4829 109.875 58.3575 109.784 58.2651C109.691 58.1726 109.566 58.1206 109.437 58.1206C109.306 58.1206 109.181 58.1726 109.089 58.2651C108.997 58.3575 108.946 58.4829 108.946 58.6137C108.742 58.6747 108.566 58.8047 108.448 58.9816C108.329 59.1583 108.276 59.371 108.296 59.5831H107.972C107.932 59.5841 107.894 59.6009 107.865 59.6298C107.838 59.6586 107.822 59.6973 107.822 59.7377C107.822 59.7775 107.838 59.8158 107.866 59.844C107.894 59.8722 107.932 59.8881 107.972 59.8881H108.388V60.1638C108.416 60.2225 108.449 60.2785 108.487 60.3309C108.525 60.3756 108.554 60.4274 108.572 60.4834C108.59 60.5393 108.597 60.5983 108.592 60.6568V61.5677H108.388V61.8267H107.972C107.932 61.8267 107.894 61.8426 107.866 61.8708C107.838 61.899 107.822 61.9373 107.822 61.9771C107.822 62.0171 107.838 62.0553 107.866 62.0835C107.894 62.1117 107.932 62.1275 107.972 62.1275V62.3449H108.134V62.1275H108.28V62.3449H108.355L108.104 68.4537H107.83C107.791 68.4537 107.752 68.4694 107.724 68.4977C107.696 68.526 107.681 68.564 107.681 68.6035C107.681 68.6437 107.696 68.6817 107.724 68.71C107.752 68.7383 107.791 68.7539 107.83 68.7539V68.9715H107.996V68.7539H108.096L107.872 74.3154H107.634C107.595 74.3154 107.557 74.331 107.529 74.3593C107.501 74.3876 107.485 74.4256 107.485 74.4659C107.485 74.5053 107.501 74.5441 107.529 74.5724C107.557 74.6 107.595 74.6163 107.634 74.6163V74.8294H107.801V74.6163H107.859L107.613 80.6285H102.871L102.692 76.2166H102.813V76.0535C102.843 76.0527 102.872 76.0393 102.892 76.0177C102.913 75.9961 102.924 75.967 102.924 75.9365C102.924 75.9067 102.913 75.8776 102.892 75.8568C102.871 75.8359 102.843 75.824 102.813 75.824H102.671L102.501 71.5909H102.596V71.7541H102.721V71.5909C102.751 71.5902 102.78 71.5775 102.801 71.5551C102.822 71.5335 102.834 71.5045 102.834 71.4739C102.834 71.4441 102.822 71.4158 102.8 71.3942C102.779 71.3734 102.751 71.3614 102.721 71.3614H102.509L102.322 66.7112H102.375V66.548H102.483V66.7112H102.613V66.548C102.644 66.5473 102.673 66.5346 102.694 66.513C102.716 66.4906 102.729 66.4616 102.729 66.431C102.729 66.4005 102.715 66.3722 102.694 66.3513C102.672 66.3297 102.643 66.3185 102.613 66.3185H102.314V66.1301H102.143V65.4365C102.139 65.3918 102.145 65.3463 102.161 65.3046C102.176 65.2621 102.2 65.2226 102.23 65.1899C102.261 65.1511 102.289 65.1094 102.314 65.0649V64.8517H102.613C102.643 64.8518 102.672 64.84 102.694 64.8189C102.715 64.7979 102.729 64.7692 102.729 64.7389C102.729 64.7082 102.716 64.6791 102.694 64.6573C102.673 64.6357 102.644 64.623 102.613 64.6219H102.314C102.328 64.4607 102.287 64.2991 102.197 64.165C102.106 64.0308 101.973 63.9324 101.818 63.8866C101.818 63.8372 101.808 63.7883 101.79 63.7427C101.77 63.697 101.743 63.6556 101.709 63.6207C101.674 63.5857 101.633 63.5581 101.587 63.5392C101.542 63.5202 101.493 63.5106 101.443 63.5106C101.394 63.5106 101.346 63.5202 101.3 63.5392C101.255 63.5581 101.214 63.5857 101.179 63.6207C101.144 63.6556 101.116 63.697 101.098 63.7427C101.079 63.7883 101.069 63.8372 101.069 63.8866C100.914 63.9325 100.781 64.0311 100.692 64.1653C100.602 64.2997 100.562 64.4611 100.578 64.6219H100.329C100.298 64.623 100.27 64.6358 100.249 64.6576C100.228 64.6795 100.216 64.7086 100.216 64.7389C100.216 64.7689 100.228 64.7975 100.249 64.8187C100.27 64.8399 100.299 64.8517 100.329 64.8517H100.649V65.0649C100.669 65.1094 100.695 65.1511 100.724 65.1899C100.781 65.2591 100.809 65.3471 100.803 65.4365V66.1301H100.649V66.3305H100.345C100.315 66.3305 100.287 66.3424 100.266 66.364C100.245 66.3848 100.233 66.4139 100.233 66.4437C100.233 66.4742 100.245 66.5033 100.266 66.5249C100.286 66.5465 100.315 66.5592 100.345 66.5607V66.7238H100.47V66.548H100.578V66.7112H100.637L100.445 71.3614H100.233C100.203 71.3614 100.174 71.3734 100.152 71.3942C100.13 71.4151 100.117 71.4441 100.117 71.4739C100.117 71.5052 100.13 71.5343 100.152 71.5559C100.173 71.5775 100.202 71.5902 100.233 71.5909V71.7541H100.362V71.5909H100.437L100.233 75.824H100.054C100.039 75.8232 100.024 75.8255 100.01 75.8307C99.9959 75.8367 99.9825 75.8449 99.972 75.8553C99.9609 75.8657 99.9527 75.8784 99.9467 75.8925C99.9407 75.9059 99.9378 75.9216 99.9378 75.9365C99.9378 75.9678 99.9497 75.9976 99.9713 76.0192C99.9936 76.0408 100.023 76.0535 100.054 76.0535V76.2166H100.179V76.0535H100.233L100.046 80.6285H97.6826V71.094L94.5827 70.3587V80.6285H94.2623V70.3587H89.1405V80.6285H88.9036V67.626H88.35V66.0675C88.35 66.0675 87.9634 65.5996 83.7735 65.5624C83.7385 65.4253 83.6766 65.2964 83.5917 65.1839C83.5068 65.0715 83.4002 64.9769 83.2781 64.9061C83.144 64.8305 82.9957 64.7858 82.8422 64.7749C82.6888 64.7641 82.5353 64.7875 82.3923 64.8434C82.504 64.6386 82.6001 64.4256 82.6999 64.225H83.2572C88.0297 64.225 88.3664 64.7013 88.3664 64.7013C88.3664 64.7013 90.2893 62.9924 88.7412 60.4771C88.1764 59.596 87.4627 58.821 86.6321 58.1875C86.6417 58.156 86.6499 58.1239 86.6566 58.0914C86.6939 57.8895 86.6715 57.6811 86.5918 57.4919C86.5121 57.3028 86.3795 57.1413 86.2089 57.0273C86.039 56.9134 85.8394 56.8522 85.6352 56.8512C85.4304 56.8503 85.23 56.9096 85.0594 57.0218L84.9715 56.9591C85.0892 56.1029 85.1599 55.2409 85.1838 54.377C85.3231 54.5428 85.5093 54.6617 85.7179 54.7174C85.9265 54.7732 86.1471 54.7633 86.3497 54.6889C86.5523 54.6146 86.7274 54.4795 86.8511 54.3018C86.9755 54.1242 87.0418 53.9127 87.0418 53.6959C87.0418 53.4792 86.9755 53.2677 86.8511 53.0901C86.7274 52.9125 86.5523 52.7773 86.3497 52.703C86.1471 52.6286 85.9265 52.6187 85.7179 52.6745C85.5093 52.7303 85.3231 52.8492 85.1838 53.0149C85.1607 52.1059 85.0839 51.1991 84.9551 50.2991C85.0914 50.4112 85.2538 50.4871 85.4274 50.5197C85.601 50.5523 85.7798 50.5406 85.9474 50.4856C86.115 50.4307 86.267 50.3343 86.3877 50.2053C86.5084 50.0763 86.5956 49.9188 86.6395 49.7474C86.6842 49.5759 86.685 49.3959 86.6425 49.224C86.5993 49.0521 86.5143 48.8937 86.3944 48.7636C86.2752 48.6334 86.1247 48.5355 85.9571 48.4789C85.7902 48.4224 85.6114 48.4089 85.4378 48.4398C85.2888 48.4674 85.148 48.5263 85.0243 48.6127C84.8999 48.6992 84.7956 48.8111 84.7182 48.9412C84.5334 48.0534 84.2972 47.1772 84.0104 46.3173C84.1974 46.4268 84.4135 46.4755 84.6288 46.4568C84.8448 46.4381 85.0489 46.3529 85.2143 46.2128C85.3805 46.0728 85.4982 45.8848 85.5533 45.6746C85.6077 45.4644 85.5965 45.2423 85.5205 45.0387C85.4483 44.8337 85.3149 44.6562 85.1376 44.5307C84.9603 44.4053 84.7494 44.3378 84.5326 44.3378C84.3159 44.3378 84.105 44.4053 83.9277 44.5307C83.7511 44.6562 83.617 44.8337 83.5448 45.0387C83.2095 44.1879 82.8251 43.3579 82.3923 42.5527C82.5353 42.6086 82.6888 42.632 82.8422 42.6212C82.9957 42.6103 83.144 42.5656 83.2781 42.4901C83.5202 42.3499 83.6975 42.1188 83.7698 41.8477C83.8428 41.5766 83.8048 41.2877 83.6655 41.0444C83.5254 40.8012 83.2952 40.6236 83.0255 40.5507C82.7558 40.4778 82.4675 40.5157 82.2254 40.6558C82.092 40.7338 81.9773 40.8413 81.8909 40.9701C81.8045 41.0989 81.7478 41.2458 81.7262 41.3996C81.2383 40.6135 80.7063 39.8561 80.1327 39.1308C80.2861 39.1654 80.4448 39.1646 80.5976 39.1283C80.7503 39.0921 80.8933 39.0215 81.0148 38.9219C81.1556 38.8085 81.2643 38.6609 81.3321 38.4932C81.3999 38.3255 81.4238 38.1431 81.4014 37.9635C81.3791 37.7839 81.3113 37.6131 81.2047 37.4671C81.0982 37.3212 80.9566 37.2051 80.7927 37.1298C80.6288 37.0545 80.4486 37.0225 80.2683 37.0369C80.0887 37.0513 79.9159 37.1116 79.7661 37.2121C79.6164 37.3125 79.4942 37.4497 79.4123 37.6108C79.3303 37.7719 79.2901 37.9513 79.2968 38.1322C78.6844 37.4361 78.0303 36.7788 77.3367 36.1643C77.514 36.1677 77.6898 36.1258 77.8463 36.0427C78.0035 35.9596 78.1368 35.8378 78.2337 35.6889C78.3313 35.54 78.3894 35.3687 78.4028 35.1911C78.4155 35.0135 78.3842 34.8354 78.3104 34.6734C78.2367 34.5114 78.1227 34.3709 77.9804 34.2651C77.8381 34.1591 77.6705 34.0913 77.4946 34.0678C77.3188 34.0444 77.14 34.0661 76.9754 34.131C76.81 34.1958 76.664 34.3017 76.5507 34.4386C76.4516 34.5603 76.3816 34.7027 76.3444 34.8553C76.3078 35.0078 76.3056 35.1667 76.3384 35.3203C75.6165 34.745 74.8621 34.2121 74.0791 33.7242C74.2329 33.7029 74.38 33.6466 74.509 33.5598C74.6381 33.4729 74.7457 33.3577 74.8238 33.2228C74.9634 32.9796 75.001 32.6907 74.9285 32.4195C74.8559 32.1484 74.6791 31.9173 74.4369 31.7771C74.1947 31.637 73.9069 31.5992 73.6369 31.672C73.367 31.745 73.1369 31.9225 72.9973 32.1657C72.9221 32.3003 72.8775 32.4498 72.8667 32.6037C72.8559 32.7576 72.8792 32.9119 72.9349 33.0557C72.1264 32.6204 71.2928 32.234 70.4385 31.8983C70.5817 31.845 70.7119 31.7615 70.8203 31.6534C70.9286 31.5452 71.0127 31.4151 71.0668 31.2716C71.1295 31.1042 71.1491 30.9237 71.1237 30.7467C71.0984 30.5696 71.0289 30.402 70.9217 30.2591C70.8146 30.1163 70.6732 30.003 70.5108 29.9298C70.3483 29.8564 70.1701 29.8256 69.9926 29.84C69.8151 29.8544 69.6441 29.9136 69.4955 30.0121C69.3469 30.1106 69.2254 30.2453 69.1425 30.4035C69.0596 30.5617 69.0178 30.7385 69.0211 30.9173C69.0244 31.0961 69.0726 31.2711 69.1612 31.4262C68.3042 31.1401 67.4319 30.9029 66.5483 30.7159C66.7341 30.6051 66.8817 30.4397 66.971 30.2421C67.0603 30.0445 67.0872 29.8241 67.0479 29.6107C67.0087 29.3972 66.9052 29.2011 66.7514 29.0485C66.5977 28.896 66.4011 28.7945 66.1881 28.7576C65.9751 28.7207 65.756 28.7503 65.5603 28.8424C65.3646 28.9345 65.2018 29.0846 65.0936 29.2725C64.9855 29.4605 64.9374 29.6771 64.9557 29.8934C64.974 30.1097 65.0579 30.3151 65.1961 30.482C64.2999 30.3523 63.3968 30.2756 62.4917 30.2521C62.6581 30.1123 62.7776 29.9244 62.834 29.7139C62.8904 29.5035 62.8809 29.2808 62.8068 29.0759C62.7328 28.8711 62.5977 28.6942 62.4199 28.5691C62.2422 28.4441 62.0304 28.377 61.8135 28.377C61.5965 28.377 61.3848 28.4441 61.207 28.5691C61.0293 28.6942 60.8942 28.8711 60.8202 29.0759C60.7461 29.2808 60.7366 29.5035 60.793 29.7139C60.8493 29.9244 60.9689 30.1123 61.1353 30.2521C60.2301 30.2756 59.3271 30.3523 58.4309 30.482C58.5259 30.367 58.5951 30.2329 58.6338 30.0887C58.6727 29.9445 58.68 29.7936 58.6556 29.6463C58.6315 29.5091 58.5808 29.378 58.5063 29.2605C58.4318 29.143 58.335 29.0414 58.2214 28.9616C58.1079 28.8816 57.9797 28.8249 57.8443 28.7948C57.7089 28.7646 57.5689 28.7614 57.4323 28.7856C57.2957 28.8097 57.1652 28.8606 57.0482 28.9354C56.9312 29.0102 56.83 29.1074 56.7504 29.2215C56.6708 29.3356 56.6144 29.4643 56.5843 29.6002C56.5543 29.7362 56.5512 29.8768 56.5753 30.0139C56.6014 30.163 56.6597 30.3046 56.7459 30.4287C56.8321 30.5528 56.9443 30.6565 57.0746 30.7326C56.1908 30.9192 55.3184 31.1563 54.4616 31.4429C54.5679 31.2545 54.6139 31.0379 54.5936 30.8223C54.5731 30.6068 54.4874 30.4028 54.3479 30.2378C54.2082 30.0728 54.0216 29.9548 53.8131 29.8998C53.6046 29.8448 53.3843 29.8554 53.1819 29.9301C52.9797 30.0049 52.8051 30.1403 52.6818 30.3179C52.5586 30.4956 52.4927 30.7069 52.493 30.9234C52.4932 31.1399 52.5596 31.3511 52.6833 31.5285C52.8069 31.7058 52.9818 31.8408 53.1843 31.915C52.3308 32.251 51.4973 32.636 50.6879 33.0682C50.7435 32.9252 50.7668 32.7715 50.756 32.6183C50.7452 32.4651 50.7006 32.3162 50.6255 32.1825C50.4859 31.9392 50.2559 31.7616 49.9859 31.6888C49.7159 31.6159 49.4282 31.6537 49.1859 31.7939C48.9437 31.934 48.7669 32.1651 48.6944 32.4362C48.6218 32.7073 48.6594 32.9963 48.799 33.2396C48.8766 33.3739 48.9837 33.4888 49.1119 33.5756C49.2402 33.6625 49.3865 33.719 49.5396 33.741C48.7566 34.2289 48.0022 34.7618 47.2803 35.337C47.3148 35.1836 47.3136 35.0242 47.2768 34.8713C47.24 34.7184 47.1686 34.5761 47.0682 34.4554C46.8883 34.2404 46.6308 34.106 46.3522 34.0817C46.0737 34.0574 45.7969 34.1453 45.5829 34.3259C45.3687 34.5065 45.2349 34.7651 45.2107 35.0449C45.1865 35.3246 45.274 35.6025 45.4538 35.8175C45.5562 35.9373 45.6842 36.0322 45.8283 36.0952C45.9725 36.1581 46.1289 36.1875 46.286 36.181C45.5948 36.7963 44.9405 37.452 44.3263 38.1447C44.3339 37.9873 44.3056 37.8302 44.2436 37.6854C44.1816 37.5406 44.0875 37.4119 43.9685 37.3091C43.7524 37.1424 43.4805 37.066 43.2097 37.0958C42.9388 37.1256 42.6898 37.2594 42.5148 37.4691C42.3397 37.6788 42.2522 37.9483 42.2703 38.2214C42.2885 38.4944 42.4109 38.7499 42.6121 38.9344C42.733 39.034 42.8749 39.1046 43.027 39.1408C43.1791 39.177 43.3375 39.1779 43.49 39.1433C42.9181 39.869 42.3875 40.6264 41.9006 41.4121C41.8779 41.2586 41.8213 41.1121 41.7349 40.9834C41.6485 40.8547 41.5345 40.7471 41.4013 40.6683C41.2814 40.599 41.1491 40.554 41.0118 40.5359C40.8745 40.5178 40.7351 40.5272 40.6014 40.5632C40.4678 40.5994 40.3425 40.6615 40.2327 40.7462C40.123 40.8309 40.0309 40.9365 39.9618 41.0569C39.8927 41.1774 39.8478 41.3103 39.8299 41.4481C39.8119 41.586 39.8212 41.726 39.8571 41.8603C39.8931 41.9945 39.955 42.1203 40.0393 42.2305C40.1236 42.3407 40.2288 42.4332 40.3487 42.5026C40.4819 42.578 40.6302 42.6228 40.7827 42.6336C40.9352 42.6444 41.0883 42.6211 41.2308 42.5653C40.7997 43.3712 40.4149 44.2012 40.0783 45.0512C40.0041 44.8467 39.8692 44.6699 39.6915 44.545C39.514 44.4201 39.3024 44.353 39.0856 44.3529C38.8688 44.3528 38.6572 44.4197 38.4795 44.5445C38.3018 44.6693 38.1667 44.8459 38.0924 45.0504C38.0181 45.255 38.0082 45.4775 38.0641 45.6879C38.12 45.8982 38.2391 46.0863 38.405 46.2264C38.5709 46.3665 38.7758 46.452 38.9918 46.4713C39.2077 46.4905 39.4244 46.4426 39.6123 46.334C39.3255 47.1939 39.0893 48.0701 38.905 48.9579C38.7946 48.7713 38.6299 48.6231 38.4332 48.5334C38.2363 48.4438 38.0169 48.4168 37.8044 48.4562C37.5918 48.4956 37.3965 48.5995 37.2446 48.7539C37.0927 48.9083 36.9916 49.1057 36.9549 49.3196C36.9181 49.5335 36.9476 49.7535 37.0393 49.95C37.1311 50.1465 37.2805 50.3101 37.4676 50.4187C37.6548 50.5273 37.8705 50.5756 38.0859 50.5572C38.3012 50.5388 38.5058 50.4546 38.6719 50.3158C38.5436 51.216 38.4658 52.1227 38.439 53.0316C38.3414 52.914 38.2193 52.8194 38.0812 52.7543C37.9432 52.6894 37.7926 52.6557 37.6401 52.6556C37.361 52.6556 37.0932 52.767 36.8958 52.9652C36.6984 53.1635 36.5875 53.4323 36.5875 53.7127C36.5875 53.993 36.6984 54.2619 36.8958 54.4601C37.0932 54.6584 37.361 54.7698 37.6401 54.7698C37.7926 54.7697 37.9432 54.736 38.0812 54.671C38.2193 54.606 38.3414 54.5113 38.439 54.3937C38.439 54.8116 38.4765 55.2294 38.5098 55.6723C38.4417 55.6983 38.3842 55.7464 38.3464 55.8088C38.3085 55.8713 38.2923 55.9446 38.3004 56.0173C38.3085 56.09 38.3403 56.1579 38.3911 56.2104C38.4417 56.2628 38.5083 56.2969 38.5805 56.3073C38.5805 56.4787 38.6138 56.6541 38.6387 56.8296V57.0887C38.5226 56.9967 38.3884 56.9305 38.245 56.8944C38.1015 56.8585 37.9521 56.8534 37.8065 56.8798C37.5313 56.9297 37.2868 57.0868 37.1263 57.3169C36.9658 57.5469 36.9023 57.8313 36.9495 58.1081C36.967 58.1929 36.9935 58.2755 37.0285 58.3546H25.9446V59.1109H26.0195C26.0414 59.112 26.0627 59.1174 26.0826 59.1268C26.1023 59.1361 26.1201 59.1494 26.1348 59.1657C26.1495 59.182 26.1608 59.201 26.1682 59.2217C26.1755 59.2425 26.1787 59.2644 26.1775 59.2864C26.1787 59.3083 26.1755 59.3303 26.1682 59.351C26.1608 59.3717 26.1495 59.3908 26.1348 59.4071C26.1201 59.4233 26.1023 59.4366 26.0826 59.446C26.0627 59.4554 26.0414 59.4608 26.0195 59.4619H25.9446V59.9466H26.4022L26.1734 60.2808L25.9446 60.6443V62.9799H26.1734V64.0913H26.5895C26.6601 64.0913 26.7278 64.1195 26.7778 64.1697C26.8277 64.2198 26.8558 64.2878 26.8558 64.3587C26.8558 64.4297 26.8277 64.4977 26.7778 64.5478C26.7278 64.598 26.6601 64.6261 26.5895 64.6261H26.0069C26.0776 64.6261 26.1454 64.598 26.1953 64.5478C26.2452 64.4977 26.2733 64.4297 26.2733 64.3587C26.2733 64.2878 26.2452 64.2198 26.1953 64.1697C26.1454 64.1195 26.0776 64.0913 26.0069 64.0913H25.5909V62.9967H25.3329V60.661L25.8406 59.9299H22.0128L22.5203 60.661V62.9967H22.2624V64.108H21.8463C21.7757 64.108 21.708 64.1362 21.6581 64.1863C21.6081 64.2365 21.5801 64.3045 21.5801 64.3754C21.5801 64.4464 21.6081 64.5144 21.6581 64.5645C21.708 64.6146 21.7757 64.6428 21.8463 64.6428H22.1916L22.4746 65.499H22.1916L22.1625 65.4283V68.219H21.7215V65.4327L21.6757 65.3113L21.4136 64.647H9.58073V65.2949H8.91924L9.33533 66.0928V68.4701H20.673C20.673 68.3196 20.8311 68.2026 21.0267 68.2026H21.4719C21.2763 68.2026 21.1182 68.3196 21.1182 68.4701C21.1182 68.6206 21.2763 68.7331 21.4719 68.7331H21.888L21.9836 69.151H21.7839L21.734 68.9424H9.53081V69.151H8.01221L8.48647 69.744C8.48111 69.8603 8.51843 69.9735 8.59144 70.0629C8.66445 70.1523 8.76786 70.2119 8.88177 70.229C8.85644 70.2804 8.84311 70.3371 8.84288 70.3944C8.84258 70.4518 8.8554 70.5084 8.88028 70.5598C8.90516 70.6112 8.94152 70.6567 8.98644 70.6924C9.03144 70.7274 9.08389 70.752 9.13976 70.764C9.13976 70.764 9.06482 71.395 9.55577 71.395V83.9296H13.1964V71.395H13.5167V69.7232H13.9328V71.395H13.6915V71.9001H13.9037V72.2845H14.1824V83.9378H20.6064V72.3098H20.8852V71.9254H21.0974V71.4196H20.6814V69.7485H21.0974V71.4196H21.1806V83.3448H21.0683V83.6539H20.8103V83.9631H27.5797C27.5797 83.3448 27.2344 83.3448 27.2344 83.3448V77.4116C27.5672 77.4116 27.5797 77.1605 27.5797 76.864H26.6519V76.2747H27.068C27.3009 70.8727 31.9817 70.1121 31.9817 70.1121C31.9817 70.1121 36.6665 70.8727 36.8996 76.2747H37.3156V76.864H36.3878C36.3878 77.1605 36.3878 77.4116 36.7332 77.4116V83.3448C36.7332 83.3448 36.3878 83.3448 36.3878 83.9631H43.1489V83.6539H42.8909V83.3448H42.6911V83.0356H42.6579V71.4196H42.8493V70.2372C42.9793 70.3006 43.121 70.3363 43.2653 70.3415V71.4196H42.8493V71.9254H43.0615V72.3098H43.3403V83.9631H47.2762C47.3118 84.0123 47.3589 84.0525 47.4135 84.0801C47.4931 84.1188 47.5838 84.1278 47.6697 84.1069C47.7555 84.0853 47.8313 84.0346 47.8836 83.9631H49.7642V80.0146L50.6463 78.1506V83.9631H54.3909V77.0771C54.4392 77.0063 54.4796 76.9311 54.5115 76.8513C54.5623 76.7076 54.5816 76.5541 54.5679 76.4021C54.5543 76.2501 54.5081 76.1026 54.4325 75.97C54.7404 76.0698 55.0524 76.1622 55.3687 76.2539L55.1897 80.6285H54.6614V84.1345H110.772V84.422H112.099V81.3683H117.45V84.422H118.773V72.0007H119.031V71.6498H118.773V71.2817L119.031 70.9353L119.172 70.5844H118.756V66.9659L119.014 66.615H117.708L117.854 66.2641H119.177V65.917H118.76L118.773 60.6986ZM20.4234 67.9188H13.4751V66.548H20.4234V67.9188ZM10.3213 71.4196H9.90533V69.7485H10.3213V71.4196ZM11.5196 71.4196H11.1036V69.7485H11.5196V71.4196ZM12.7179 71.4196H12.3018V69.7485H12.7179V71.4196ZM19.583 74.7624C19.6805 74.9568 19.7598 75.1595 19.8201 75.3681H19.067V74.7624H19.583ZM19.067 74.6745V74.0688H19.1003C19.2644 74.252 19.4042 74.4554 19.5163 74.6745H19.067ZM19.8492 75.456C19.9026 75.6549 19.9429 75.8575 19.9699 76.0616H19.067V75.456H19.8492ZM15.5263 76.8476H14.7317C14.732 76.6144 14.7459 76.3813 14.7732 76.1496H15.5263V76.8476ZM15.5263 76.0616H14.7857C14.8127 75.8575 14.8529 75.6549 14.9064 75.456H15.5263V76.0616ZM15.5263 75.3681H14.9397C15.0013 75.1595 15.082 74.9561 15.181 74.7624H15.5304L15.5263 75.3681ZM15.5263 74.6745H15.2226C15.3107 74.5143 15.4123 74.3623 15.5263 74.2193V74.6745ZM16.217 76.8476H15.6178V76.1578H16.217V76.8476ZM16.217 76.0616H15.6178V75.456H16.217V76.0616ZM16.217 75.3681H15.6178V74.7624H16.217V75.3681ZM16.217 74.6745H15.6178V74.115L15.6595 74.0688H16.217V74.6745ZM16.217 73.9809H15.7468C15.891 73.8423 16.0485 73.7171 16.217 73.6091V73.9809ZM16.9077 76.8476H16.3085V76.1578H16.9077V76.8476ZM16.9077 76.0616H16.3085V75.456H16.9077V76.0616ZM16.9077 75.3681H16.3085V74.7624H16.9077V75.3681ZM16.9077 74.6745H16.3085V74.0688H16.9077V74.6745ZM16.9077 73.9809H16.3085V73.5629C16.4971 73.4527 16.6982 73.3662 16.9077 73.3044V73.9809ZM17.5983 76.8476H16.995V76.1578H17.5983V76.8476ZM17.5983 76.0616H16.995V75.456H17.5983V76.0616ZM17.5983 75.3681H16.995V74.7624H17.5983V75.3681ZM17.5983 74.6745H16.995V74.0688H17.5983V74.6745ZM17.5983 73.9809H16.995V73.2753C17.1206 73.2411 17.2486 73.2172 17.3778 73.2038C17.3778 73.2038 17.4652 73.2038 17.5983 73.2374V73.9809ZM18.289 76.8476H17.6857V76.1578H18.289V76.8476ZM18.289 76.0616H17.6857V75.456H18.289V76.0616ZM18.289 75.3681H17.6857V74.7624H18.289V75.3681ZM18.289 74.6745H17.6857V74.0688H18.289V74.6745ZM18.289 73.9809H17.6857V73.2753C17.8943 73.3245 18.0967 73.3968 18.289 73.4921V73.9809ZM18.9797 76.8476H18.3763V76.1578H18.9797V76.8476ZM18.9797 76.0616H18.3763V75.456H18.9797V76.0616ZM18.9797 75.3681H18.3763V74.7624H18.9797V75.3681ZM18.9797 74.6745H18.3763V74.0688H18.9797V74.6745ZM18.9797 73.9809H18.3763V73.5175C18.5953 73.6285 18.7982 73.7693 18.9797 73.9354V73.9809ZM19.067 76.8476V76.1578H19.9823C20.0097 76.3894 20.0235 76.6226 20.024 76.8558L19.067 76.8476ZM19.483 69.744H19.8991V71.4158H19.483V69.744ZM18.2807 69.744H18.6968V71.4158H18.2807V69.744ZM17.0824 69.744H17.4984V71.4158H17.0824V69.744ZM15.8842 69.744H16.3002V71.4158H15.8842V69.744ZM14.6858 69.744H15.1019V71.4158H14.6858V69.744ZM25.6408 64.6178H25.9779L25.6408 65.4745H25.3413L25.6408 64.6178ZM25.4786 68.7204H25.6866L25.5202 69.5816H25.3413L25.4786 68.7204ZM24.1264 64.6178H24.4634L24.3718 65.4745H24.0931L24.1264 64.6178ZM24.0182 68.7204V69.5816H23.8268V68.7204H24.0182ZM23.7062 64.6178L23.7395 65.4745H23.4565L23.3649 64.6178H23.7062ZM22.3498 68.7204L22.4954 69.5816H22.3082L22.1417 68.7204H22.3498ZM22.0128 69.3894L22.0627 69.6062H22.0128V69.3894ZM22.7949 81.0464H22.0585V70.7893H22.7949V81.0464ZM22.7201 69.6062L22.5953 68.7457H22.8033L22.9073 69.6062H22.7201ZM22.8075 65.499L22.5953 64.6428H22.9322L23.0945 65.499H22.8075ZM23.3316 68.7457H23.5397L23.573 69.6062H23.3858L23.3316 68.7457ZM24.272 81.0464H23.5314V70.7893H24.272V81.0464ZM24.4176 69.6062H24.2304L24.2636 68.7457H24.4717L24.4176 69.6062ZM24.8711 64.6428H25.2081L24.996 65.499H24.713L24.8711 64.6428ZM25.0001 68.7457H25.2081L25.0875 69.6062H24.9252L25.0001 68.7457ZM25.7574 81.0464H25.0168V70.7893H25.7574V81.0464ZM26.1401 68.7837L26.0735 69.0721L25.9446 69.6062H25.7574L25.9446 68.7457H26.1526L26.1401 68.7837ZM73.5257 77.5576C73.5866 77.4161 73.6755 77.2879 73.7871 77.1814C73.8986 77.0756 74.0305 76.9929 74.1748 76.9393C74.4023 76.8186 74.6194 76.6785 74.8238 76.5213C75.0264 76.6793 75.2425 76.8186 75.469 76.9393C75.7975 77.1024 76.3011 77.2857 76.3011 78.5648V80.6538H75.2693V79.4797C75.2693 79.4209 75.2581 79.362 75.2365 79.3069C75.2142 79.2525 75.1814 79.2026 75.1404 79.1609C75.0987 79.1191 75.0495 79.0856 74.9952 79.0625C74.9408 79.0402 74.8827 79.0282 74.8238 79.0282C74.7225 79.0327 74.6257 79.0722 74.5499 79.14C74.4742 79.2078 74.4239 79.2994 74.4077 79.4L73.5257 77.5576ZM76.8293 69.5146H76.7832V68.6206C76.7668 68.4045 76.8338 68.19 76.9709 68.0231C77.0432 67.9262 77.1057 67.8227 77.1579 67.7139V67.2043H77.5244L78.0444 67.6215H77.5699V68.7539C77.3494 69.0132 77.0871 69.2598 76.8331 69.5019L76.8293 69.5146ZM76.2803 73.4504V75.5394H75.2693V74.3779C75.2693 74.2587 75.2224 74.1448 75.1389 74.0606C75.0555 73.9756 74.9423 73.928 74.8238 73.9265C74.754 73.9295 74.6858 73.9481 74.6241 73.9809C74.4693 73.8334 74.2735 73.7358 74.0624 73.7015C74.7466 73.2709 75.4094 72.8067 76.0471 72.3098C76.2229 72.6585 76.3049 73.0474 76.284 73.4378L76.2803 73.4504ZM63.9645 64.8517H64.21V65.0649C64.2339 65.1094 64.2618 65.1511 64.2932 65.1899C64.323 65.2234 64.3458 65.2621 64.3601 65.3046C64.3744 65.3471 64.38 65.3918 64.3764 65.4365V66.1301H64.21V66.247L63.9645 64.8517ZM64.5096 66.1301V65.4365C64.507 65.3903 64.5154 65.3433 64.5342 65.3001C64.553 65.2577 64.5816 65.2197 64.6178 65.1899C64.6178 65.1616 64.6292 65.134 64.6494 65.1131C64.6698 65.093 64.6972 65.0815 64.7259 65.0815C64.7546 65.0815 64.7822 65.093 64.8024 65.1131C64.8227 65.134 64.8341 65.1616 64.8341 65.1899C64.8708 65.2197 64.8998 65.2569 64.9187 65.3001C64.9375 65.3426 64.9456 65.3895 64.9423 65.4365V66.1301H64.5096ZM83.5902 54.4313C83.5813 54.3489 83.5425 54.2729 83.4807 54.2174C83.4196 54.1619 83.3399 54.131 83.2572 54.1305C83.3027 54.1303 83.3481 54.1389 83.3906 54.1556V53.9049H83.5902C83.5902 54.0678 83.5902 54.2433 83.5902 54.4313ZM83.5068 55.7474L83.3742 55.6054C83.4338 55.5887 83.4896 55.5587 83.5358 55.5177C83.5068 55.5845 83.4986 55.6597 83.4904 55.7349L83.5068 55.7474ZM83.1201 53.9049V54.1598C83.059 54.1856 83.0069 54.2292 82.9704 54.2851C82.9339 54.3409 82.9153 54.4064 82.916 54.4731C82.916 54.5349 82.9324 54.5956 82.9637 54.6486C82.9957 54.7016 83.0412 54.745 83.0955 54.7739C82.9845 54.7795 82.881 54.8288 82.8072 54.9111C82.7327 54.9933 82.6947 55.1018 82.6999 55.2127C82.7052 55.3235 82.7543 55.4275 82.8363 55.502C82.9182 55.5764 83.0263 55.6151 83.1365 55.6096C82.6471 56.1323 82.1017 56.5989 81.5102 57.0009L75.1777 55.877C75.2812 55.2259 75.3416 54.5683 75.3565 53.9091L83.1201 53.9049ZM81.0691 57.3101C80.1029 57.9499 79.2208 58.7093 78.4438 59.5705L74.5991 58.1666C74.8196 57.5441 74.9934 56.9058 75.1196 56.2572L81.0691 57.3101ZM77.1579 62.3699L73.6214 60.3184C73.9431 59.7427 74.2213 59.1435 74.4535 58.526L78.1815 59.863C78.04 60.0552 77.8984 60.2516 77.7651 60.4605C77.3911 61.0282 77.181 61.6893 77.1579 62.3699ZM73.9376 68.6124C73.9353 68.5826 73.9353 68.5535 73.9376 68.5245L74.7697 69.5064H73.9376V68.6124ZM74.1082 68.111C74.1415 68.073 74.1748 68.044 74.2039 68.0149C74.197 67.9762 74.1987 67.9367 74.2087 67.8987C74.2186 67.8607 74.2368 67.8257 74.2618 67.7959C74.2868 67.7661 74.318 67.7415 74.3533 67.7251C74.3886 67.7087 74.4271 67.6998 74.466 67.6998C74.5049 67.6998 74.5434 67.7087 74.5787 67.7251C74.6139 67.7415 74.6452 67.7661 74.6702 67.7959C74.6952 67.8257 74.7133 67.8607 74.7233 67.8987C74.7334 67.9367 74.735 67.9762 74.7281 68.0149C74.8178 68.0849 74.8889 68.1758 74.9354 68.2801C74.9818 68.3844 75.0021 68.4984 74.9944 68.6124V69.1637L74.1082 68.111ZM76.4047 68.6124V69.5064H75.352V68.6124C75.3446 68.4984 75.3647 68.3852 75.4101 68.2809C75.4563 68.1773 75.5263 68.0857 75.6143 68.0149C75.7148 67.9225 75.8042 67.819 75.881 67.7057C75.954 67.8197 76.0419 67.9233 76.1425 68.0149C76.2304 68.0849 76.3004 68.1758 76.3458 68.2794C76.3913 68.3822 76.4114 68.4954 76.4047 68.6079V68.6124ZM74.2829 65.0189C73.6963 65.3113 73.0847 65.5788 73.0847 66.811H73.0223L70.6507 63.9702C71.148 63.5376 71.6138 63.0698 72.0445 62.5704L74.6449 64.764C74.5355 64.8628 74.4138 64.9471 74.2829 65.0147V65.0189ZM72.0029 62.0273L63.64 54.9828L73.0847 60.4605C72.7623 61.007 72.4008 61.5293 72.0029 62.0231V62.0273ZM63.8356 54.6402L74.0874 58.4006C73.8619 58.9967 73.595 59.5761 73.2885 60.1346L63.8356 54.6402ZM74.7198 56.1778C74.599 56.8035 74.4322 57.4194 74.2205 58.0204L63.9645 54.26L74.7198 56.1778ZM64.0352 53.8923H74.9528C74.9426 54.5294 74.8856 55.1648 74.7822 55.7934L64.0352 53.8923ZM64.0352 53.4996L74.7822 51.5985C74.8856 52.2272 74.9426 52.8626 74.9528 53.4996H64.0352ZM63.9687 53.1194L74.2247 49.359C74.4357 49.9601 74.6026 50.5759 74.724 51.2016L63.9687 53.1194ZM63.8398 52.7517L73.2927 47.2699C73.5992 47.8284 73.8661 48.4078 74.0915 49.0038L63.8398 52.7517ZM63.6442 52.4133L72.007 45.3688C72.4051 45.864 72.7666 46.3876 73.0889 46.9356L63.6442 52.4133ZM71.7491 62.3156C71.335 62.7996 70.8859 63.252 70.4052 63.6693L63.3904 55.267L71.7491 62.3156ZM70.114 63.9242C69.6201 64.3249 69.0972 64.688 68.5496 65.0105L63.2032 55.7099L63.1407 55.5762L70.114 63.9242ZM69.3692 68.7413V68.1773C69.3749 68.1781 69.3805 68.1773 69.3859 68.1758C69.3913 68.1736 69.3961 68.1706 69.4001 68.1669C69.4042 68.1632 69.4071 68.1579 69.409 68.1527C69.4109 68.1475 69.4115 68.1416 69.4108 68.1356C69.4109 68.1304 69.4097 68.1252 69.4077 68.1207C69.4055 68.1155 69.4024 68.111 69.3984 68.1073C69.3945 68.1043 69.3899 68.1013 69.3849 68.0998C69.3798 68.0983 69.3745 68.0976 69.3692 68.0983C69.3763 68.0402 69.3626 67.9821 69.3306 67.9337C69.2984 67.886 69.2502 67.8503 69.1945 67.8346C69.1377 67.8011 69.0916 67.7519 69.0613 67.6931C69.0333 67.7519 68.9884 67.8018 68.9323 67.8346L67.963 65.7792L68.4039 65.5497L70.8213 69.7485L69.9392 69.9579L69.3692 68.7413ZM67.8048 65.4327L65.2835 60.1095L68.2209 65.2152L67.8048 65.4327ZM67.1058 65.771C66.9061 65.8626 66.6897 65.9378 66.4942 66.0176L66.0781 64.8392H66.1613C66.1911 64.8392 66.2197 64.8273 66.2408 64.8062C66.2618 64.785 66.2737 64.7563 66.2737 64.7264C66.2737 64.6961 66.262 64.6669 66.241 64.6451C66.2201 64.6233 66.1915 64.6105 66.1613 64.6094H65.995L64.106 59.4452L67.1058 65.771ZM65.4416 65.1779C65.4782 65.207 65.5072 65.2442 65.5261 65.2875C65.5449 65.3307 65.5531 65.3776 65.5497 65.4238V66.1301H65.1337V65.4365C65.1311 65.3903 65.1395 65.3433 65.1583 65.3001C65.1771 65.2577 65.2057 65.2197 65.2418 65.1899C65.2418 65.1616 65.2532 65.134 65.2735 65.1131C65.2938 65.093 65.3213 65.0815 65.35 65.0815C65.3787 65.0815 65.4063 65.093 65.4265 65.1131C65.4468 65.134 65.4582 65.1616 65.4582 65.1899L65.4416 65.1779ZM65.6995 66.1301V65.4365C65.6932 65.3471 65.7215 65.2591 65.7786 65.1899L66.1322 66.168C66.0407 66.2016 65.945 66.2262 65.8493 66.256V66.1301H65.6995ZM66.0698 71.6036H66.1156V71.7667H66.2445V71.6036C66.2752 71.6028 66.3042 71.5902 66.3258 71.5686C66.3474 71.5462 66.36 71.5171 66.3611 71.4866C66.36 71.4561 66.3472 71.4277 66.3255 71.4069C66.3038 71.3853 66.2748 71.3741 66.2445 71.3741H66.0365L65.8451 66.7238H65.9034V66.6359L66.0116 66.6024V66.7238H66.1364V66.548L66.2445 66.5145L68.7743 73.4921V74.3988C67.9276 74.6886 67.0631 74.9233 66.1863 75.1006L66.0698 71.6036ZM66.6357 66.3938C66.852 66.3141 67.0517 66.2306 67.2805 66.1345L68.7992 69.3477V70.6969L69.3734 70.5591L69.5481 70.9308L68.7992 71.1066V72.3597L66.6357 66.3938ZM69.4441 73.4378C69.4441 72.1549 69.7395 71.9716 69.935 71.8084L70.7922 73.6173C70.347 73.8185 69.8935 74.0107 69.4316 74.1857L69.4441 73.4378ZM70.1264 70.3631L71.0459 70.1456L71.254 70.5092L70.3012 70.7349L70.1264 70.3631ZM72.2068 72.8947L71.8906 73.066V71.6036L72.2068 72.1549V72.8947ZM75.4355 71.7876C74.7742 72.2867 74.0867 72.7494 73.3759 73.1748C73.386 72.9855 73.4166 72.7978 73.4675 72.6145C74.0056 72.2748 74.5284 71.9187 75.0361 71.5455C75.165 71.6326 75.2984 71.7138 75.4355 71.7876ZM72.2068 70.3587V71.3778L71.8906 70.8265V70.3587L71.6534 70.4168L71.4454 70.054L71.8906 69.9489V69.5019L71.2207 69.6606L68.7243 65.3493C69.2911 65.0139 69.832 64.6368 70.3428 64.2208L72.7019 67.0457V67.1917H72.8225L73.197 67.6387V67.7013C73.2539 67.8115 73.3222 67.9151 73.4009 68.0104C73.4738 68.0909 73.5294 68.1855 73.5645 68.2883C73.5996 68.3904 73.6133 68.4999 73.6048 68.6079V69.5019H72.4772V67.3839C72.4882 67.3839 72.4988 67.3794 72.5066 67.3712C72.5145 67.3638 72.5189 67.3533 72.5189 67.3422C72.5189 67.331 72.5145 67.3206 72.5066 67.3124C72.4988 67.3049 72.4882 67.3004 72.4772 67.3004C72.4824 67.2431 72.4679 67.1865 72.436 67.1395C72.4041 67.0918 72.357 67.0576 72.3024 67.0412C72.3024 67.0054 72.2884 66.9719 72.2635 66.9466C72.2385 66.9212 72.2046 66.9071 72.1693 66.9071C72.134 66.9071 72.1002 66.9212 72.0752 66.9466C72.0502 66.9719 72.0362 67.0054 72.0362 67.0412C71.9817 67.0576 71.9345 67.0918 71.9027 67.1395C71.8708 67.1865 71.8562 67.2431 71.8615 67.3004C71.8504 67.3004 71.8399 67.3049 71.832 67.3124C71.8242 67.3206 71.8198 67.331 71.8198 67.3422C71.8198 67.3533 71.8242 67.3638 71.832 67.3712C71.8399 67.3794 71.8504 67.3839 71.8615 67.3839H71.9405V69.5608L72.2276 69.5019V69.9407H75.165L75.5107 70.3587H72.2068ZM75.6515 69.9407H76.3548C76.2214 70.0622 76.0888 70.1828 75.9391 70.2998L75.6515 69.9407ZM78.148 66.0593V67.179L77.2868 66.4564C77.1788 65.5162 76.6334 65.2696 76.1097 65.0064C75.7215 64.7781 75.4071 64.4413 75.2067 64.037C75.1263 64.1843 75.0332 64.324 74.9278 64.4548L72.3149 62.2529C72.7278 61.739 73.1032 61.1958 73.4383 60.6276L77.1832 62.8086C77.2875 63.5196 77.6205 64.1769 78.1316 64.6804C78.1316 64.6804 78.2814 64.4674 79.7959 64.3253L80.5655 64.7724C80.3867 65.069 80.2035 65.3657 80.0165 65.654C78.3313 65.8254 78.1316 66.0675 78.1316 66.0675L78.148 66.0593ZM80.5029 64.2877L80.8777 64.2668L80.7778 64.4464L80.5029 64.2877ZM83.4159 54.753C83.4569 54.7301 83.4934 54.6991 83.5224 54.6618C83.5522 54.6245 83.5738 54.5816 83.5865 54.5358C83.5865 54.6444 83.5865 54.7531 83.5865 54.8617C83.5336 54.8125 83.4688 54.778 83.3988 54.7614L83.4159 54.753ZM83.5738 53.4996C83.588 53.4651 83.5969 53.4284 83.5984 53.391C83.5984 53.3001 83.5627 53.2129 83.4986 53.1487C83.4345 53.0844 83.3481 53.0484 83.2572 53.0484C83.3027 53.0482 83.3481 53.0567 83.3906 53.0734V52.196C83.3906 52.196 83.3906 52.0539 83.2535 52.0539C83.1157 52.0539 83.1201 52.196 83.1201 52.196V53.0776C83.059 53.1034 83.0069 53.1471 82.9704 53.203C82.9339 53.2588 82.9153 53.3242 82.916 53.391C82.91 53.4269 82.91 53.4636 82.916 53.4996H75.3401C75.3244 52.8403 75.2649 52.1828 75.1606 51.5316L83.2907 50.0902C83.4777 51.2172 83.5768 52.3571 83.5865 53.4996H83.5738ZM75.1196 51.1473C74.9934 50.4987 74.8196 49.8604 74.5991 49.2378L82.3423 46.4008C82.7223 47.4789 83.0173 48.5854 83.2244 49.71L75.1196 51.1473ZM74.4369 48.8702C74.2046 48.2526 73.9265 47.6534 73.6048 47.0777L80.7443 42.9371C81.3075 43.9291 81.7918 44.9643 82.1926 46.0332L74.4369 48.8702ZM73.4092 46.7434C73.0742 46.1753 72.6987 45.632 72.2858 45.1181L78.5972 39.8076C79.3206 40.6902 79.974 41.6275 80.5529 42.6112L73.4092 46.7434ZM72.0445 44.8215C71.6138 44.3221 71.148 43.8543 70.6507 43.4218L75.951 37.0793C76.8152 37.8218 77.6213 38.6306 78.3603 39.4985L72.0445 44.8215ZM71.7449 45.0722L63.3904 52.1124L70.401 43.7226C70.8828 44.1387 71.3321 44.5912 71.7449 45.0764V45.0722ZM63.095 51.8617L68.5454 42.3772C69.0931 42.6997 69.616 43.0628 70.1098 43.4636L63.095 51.8617ZM62.7579 51.6654L66.5025 41.3703C67.0961 41.5967 67.6731 41.8648 68.2292 42.1725L62.7579 51.6654ZM62.3918 51.5316L64.2891 40.7352C64.9121 40.857 65.5253 41.0246 66.1239 41.2366L62.3918 51.5316ZM65.2627 63.7738C65.168 63.6864 65.0892 63.5832 65.0297 63.4688C64.9489 63.6423 64.8185 63.7877 64.6552 63.8866C64.5005 63.9324 64.3665 64.0308 64.2762 64.165C64.1859 64.2991 64.1448 64.4607 64.1601 64.6219H63.9312L62.3918 55.8686L65.2627 63.7738ZM66.5109 75.8903C66.5017 75.8732 66.488 75.8583 66.4712 75.8478C66.4543 75.8374 66.4349 75.8322 66.4151 75.8322H66.2363V75.5103C67.1058 75.3323 67.9644 75.1036 68.8075 74.8249V75.2801C68.0504 75.5223 67.2811 75.7234 66.5025 75.8821L66.5109 75.8903ZM69.7354 74.9546L69.5856 74.5366C70.0599 74.3571 70.5259 74.1604 70.9836 73.9518L71.1666 74.3444C70.6923 74.562 70.2138 74.7624 69.727 74.9464L69.7354 74.9546ZM70.892 71.9627C71.0151 72.1072 71.0983 72.2815 71.1333 72.4685L70.892 71.9627ZM71.8989 73.513L72.2151 73.3461V73.8348C72.1069 73.8892 72.0029 73.9518 71.8989 74.0062V73.513ZM72.2151 74.7162V74.7579V74.7251V74.7162ZM76.4881 70.3669L76.9418 69.9489H77.3576V69.5608L77.5945 69.3224V69.9281C77.4447 70.0748 77.2994 70.2208 77.1452 70.346L76.4881 70.3669ZM77.3449 71.2318L77.5825 71.0024V71.2653C77.5036 71.2571 77.4239 71.2571 77.3449 71.2653V71.2318ZM80.5156 65.6458C80.649 65.4327 80.7816 65.2279 80.9112 64.998L81.2852 65.2107C81.2062 65.3493 81.1191 65.4826 81.0401 65.6287L80.5156 65.6458ZM81.4811 64.8768L81.1064 64.6596C81.1816 64.53 81.2479 64.3963 81.3187 64.2626H81.8179C81.6972 64.459 81.5892 64.6596 81.4722 64.8768H81.4811ZM83.8525 56.1026C83.9329 55.3755 83.9761 54.6448 83.9813 53.9132H84.3978C84.3881 54.7583 84.333 55.6022 84.2309 56.441C84.102 56.3115 83.9732 56.1987 83.8443 56.1026H83.8525ZM84.4142 53.5205H83.9977C83.9895 52.3556 83.889 51.1932 83.6982 50.0442L84.1147 49.969C84.3069 51.1363 84.4097 52.3166 84.4224 53.4996L84.4142 53.5205ZM84.0357 49.5888L83.6193 49.6598C83.4099 48.5136 83.1097 47.386 82.7208 46.288L83.1365 46.1418C83.5224 47.2585 83.8204 48.4041 84.0268 49.5679L84.0357 49.5888ZM82.9868 45.7741L82.5711 45.9245C82.1621 44.8234 81.6681 43.7561 81.0937 42.7324L81.4685 42.5193C82.0555 43.5558 82.5606 44.6371 82.9786 45.7533L82.9868 45.7741ZM81.2852 42.2101L80.9112 42.4274C80.3219 41.4226 79.6551 40.4657 78.9176 39.5653L79.2506 39.2896C80.0008 40.2013 80.678 41.1708 81.277 42.1893L81.2852 42.2101ZM76.4799 36.4651C77.3747 37.2354 78.2091 38.0735 78.9764 38.972L78.6434 39.2519C77.891 38.3667 77.07 37.5425 76.1886 36.7868L76.4799 36.4651ZM73.2761 34.1671C74.2991 34.7699 75.273 35.453 76.1886 36.2103L75.91 36.5445C75.0163 35.8015 74.0647 35.1322 73.0639 34.5431L73.2761 34.1671ZM75.6604 36.8411L70.3595 43.1711C69.8487 42.7551 69.3077 42.378 68.741 42.043L72.8683 34.8649C73.8479 35.4463 74.7813 36.1028 75.6604 36.8286V36.8411ZM69.727 32.4582C70.8358 32.8714 71.91 33.3729 72.939 33.9582L72.7227 34.3342C71.7146 33.7579 70.6628 33.2619 69.5772 32.851L69.727 32.4582ZM72.5313 34.6852L68.4081 41.855C67.8348 41.5319 67.2381 41.2526 66.6231 41.0193L69.4441 33.2186C70.5098 33.6206 71.5421 34.1068 72.5313 34.6726V34.6852ZM65.9284 31.4053C67.095 31.6199 68.2428 31.9273 69.3609 32.3245L69.2111 32.7424C68.1181 32.3507 66.9952 32.0489 65.8535 31.8399L65.9284 31.4053ZM69.0822 33.0975L66.2571 40.8857C65.6364 40.6675 65.001 40.4944 64.3557 40.3675L65.7869 32.2117C66.9063 32.4161 68.0081 32.7081 69.0822 33.085V33.0975ZM62.0091 31.0084C63.1956 31.0177 64.3794 31.1211 65.5497 31.3175L65.4749 31.7354C64.3293 31.5438 63.1704 31.4432 62.0091 31.4346V31.0084ZM62.0091 31.844C63.1481 31.8535 64.2847 31.9527 65.4083 32.1407L63.9729 40.3049C63.3233 40.1982 62.667 40.1381 62.0091 40.1252V31.844ZM62.0091 40.5138C62.6448 40.5275 63.2788 40.5862 63.9063 40.6893L62.0091 51.4815V40.5138ZM62.0091 55.9271L63.8398 66.3729C63.8157 66.3938 63.8007 66.4243 63.7981 66.4564C63.7993 66.4787 63.807 66.4996 63.8204 66.5175C63.8337 66.5353 63.852 66.5487 63.873 66.5562L63.9063 66.7365C63.2788 66.8393 62.6448 66.8981 62.0091 66.9116V55.9271ZM62.0091 67.2833C62.6672 67.2729 63.3236 67.2125 63.9729 67.1038L64.1434 68.0775L64.0103 71.3696H63.7981C63.7683 71.3696 63.7398 71.3816 63.7187 71.4024C63.6976 71.424 63.6858 71.4523 63.6858 71.4829C63.6858 71.5127 63.6975 71.5417 63.7184 71.5641C63.7394 71.5857 63.7679 71.5984 63.7981 71.5998V71.7623H63.9229V71.5998H64.0186L63.8605 75.4686C63.2572 75.5267 62.6456 75.5603 62.0257 75.5647L62.0091 67.2833ZM62.0091 75.9529C62.5458 75.9529 63.0784 75.9238 63.6025 75.8821C63.5876 75.9 63.5788 75.9216 63.5776 75.9447C63.5776 75.9752 63.5893 76.0043 63.6102 76.0259C63.6312 76.0482 63.6598 76.0609 63.6899 76.0616V76.2248H63.8106V76.3C63.2157 76.3544 62.6165 76.3835 62.0091 76.388V75.9529ZM61.6221 31.0335V31.4513C60.4621 31.4601 59.3046 31.5606 58.1605 31.7521L58.0855 31.3343C59.2547 31.1408 60.4372 31.0402 61.6221 31.0335ZM44.0642 70.0368C44.1437 69.9594 44.2097 69.8692 44.2597 69.7694H44.4803V71.4404H44.0642V70.0368ZM53.875 71.4196L54.083 70.9815V71.4196H53.875ZM52.8847 69.7485V71.4196H52.4687V70.3959L52.8307 69.7694L52.8847 69.7485ZM51.2579 71.4196V69.7485H51.674V70.9353L51.4077 71.3987L51.2579 71.4196ZM47.7505 71.4196L47.6631 71.3488V70.9599L47.7422 70.8638L48.0916 71.1402V71.4196H47.7505ZM40.59 64.8183C40.521 64.8415 40.4541 64.8709 40.3904 64.9061C40.3436 64.9347 40.2991 64.9668 40.2571 65.0021V64.6428H40.5984L40.59 64.8183ZM39.7579 57.7989L40.0367 57.753C40.0575 57.8658 40.0866 57.9828 40.1074 58.0956H39.7579V57.7989ZM41.4222 55.6263V55.4048C41.4222 55.0372 41.056 54.4105 40.7024 53.8923H48.2914C48.3023 54.5519 48.3622 55.2097 48.4703 55.8603L41.4222 57.1138V56.3031C41.5046 56.2939 41.5806 56.2545 41.6359 56.1925C41.6912 56.1304 41.7218 56.0501 41.7218 55.9668C41.7218 55.8835 41.6912 55.8032 41.6359 55.7412C41.5806 55.6791 41.5046 55.6397 41.4222 55.6305V55.6263ZM40.3321 56.8798V57.2725C40.2988 57.072 40.2738 56.8547 40.2447 56.6709C40.2927 56.7249 40.3194 56.7948 40.3196 56.8672L40.3321 56.8798ZM40.7981 56.8798C40.7981 56.7168 40.8813 56.5873 40.9853 56.5873C41.0893 56.5873 41.1684 56.7168 41.1684 56.8798V57.1681L40.7981 57.2307V56.8798ZM40.7981 57.6277L41.1684 57.5608V58.1081H40.7981V57.6277ZM41.5012 59.4577C41.5245 59.4583 41.5477 59.4541 41.5694 59.4455C41.5911 59.437 41.6108 59.4242 41.6275 59.4078C41.6442 59.3915 41.6574 59.3719 41.6665 59.3503C41.6755 59.3288 41.6802 59.3056 41.6801 59.2822C41.6802 59.2588 41.6755 59.2357 41.6665 59.2141C41.6574 59.1925 41.6442 59.1729 41.6275 59.1566C41.6108 59.1402 41.5911 59.1274 41.5694 59.1189C41.5477 59.1103 41.5245 59.1062 41.5012 59.1067H41.4222V57.519L48.5285 56.2656C48.6549 56.9136 48.8273 57.5517 49.0444 58.175L41.4222 60.9618V60.6819L41.9297 59.9507H40.9478C40.9021 59.792 40.8522 59.629 40.8105 59.466L41.5012 59.4577ZM55.8305 65.4454L55.4144 65.2279L55.8804 64.4131L55.8388 65.4238L55.8305 65.4454ZM54.004 63.356L56.2049 60.7237V61.5802H55.9844V61.8393H55.5892C55.5495 61.8393 55.5113 61.8551 55.4832 61.8833C55.4551 61.9116 55.4394 61.9498 55.4394 61.9896C55.4394 62.0296 55.4551 62.0678 55.4832 62.096C55.5113 62.1243 55.5495 62.1401 55.5892 62.1401V62.3574H55.7556V62.1401H55.9012V62.3574H55.972L55.922 63.5774L55.0899 65.0231C54.5948 64.7271 54.1195 64.3992 53.6669 64.0411H54.2702V63.356H54.004ZM57.9191 61.0287V60.8699L58.3352 60.122L57.9191 61.0287ZM57.682 60.5023L57.1453 61.4381V60.6568C57.1406 60.5951 57.1511 60.5331 57.1757 60.4762C57.2004 60.4195 57.2385 60.3696 57.2867 60.3309C57.341 60.2817 57.3885 60.2256 57.4281 60.1638C57.4696 60.2242 57.5169 60.2802 57.5696 60.3309C57.6206 60.3737 57.6605 60.4282 57.6861 60.4897L57.682 60.5023ZM56.6626 60.1763C56.7048 60.2373 56.7537 60.2933 56.8082 60.3435C56.8557 60.3828 56.8932 60.4328 56.9178 60.4894C56.9424 60.5461 56.9533 60.6077 56.9497 60.6694V61.5802H56.3797V60.6568C56.3751 60.5843 56.391 60.5119 56.4254 60.4479L56.5253 60.3309C56.5792 60.2814 56.6267 60.2252 56.6667 60.1638L56.6626 60.1763ZM51.5867 62.5788C51.8155 62.8462 52.0609 63.1053 52.3106 63.356H50.6463L51.5867 62.5788ZM50.0638 63.356H45.5662L50.2136 60.661C50.5472 61.2291 50.9213 61.7723 51.3328 62.2863L50.0638 63.356ZM50.5423 60.4688L59.9912 54.9912L51.6282 62.0356C51.2311 61.5353 50.8697 61.0076 50.5465 60.4563L50.5423 60.4688ZM50.3426 60.1346C50.0362 59.5761 49.7692 58.9967 49.5437 58.4006L59.7956 54.6402L50.3426 60.1346ZM49.4106 58.0455C49.1989 57.4445 49.0321 56.8287 48.9114 56.2029L59.6625 54.2976L49.4106 58.0455ZM50.0056 60.3393L44.7881 63.3685H42.2917C41.9756 62.7209 41.6843 62.0607 41.4304 61.3839L49.1859 58.5468C49.4183 59.1549 49.6936 59.7455 50.0097 60.3142L50.0056 60.3393ZM42.6412 63.7905C42.7156 63.7859 42.7888 63.8109 42.8449 63.8603C42.901 63.9095 42.9354 63.979 42.9408 64.0537H43.6023L42.8659 64.4715C42.737 64.2459 42.6163 64.0119 42.4956 63.7821L42.6412 63.7905ZM43.3236 64.6679L44.3763 64.0537H49.2483L48.5202 64.6679H43.3236ZM46.2693 66.548L45.0211 67.6007C44.7382 67.2587 44.4719 66.9071 44.2139 66.548H46.2693ZM49.8558 64.0411H52.9305L52.4188 64.6554H49.1276L49.8558 64.0411ZM53.2759 64.2334C53.4547 64.3838 53.642 64.5175 53.8334 64.6512H52.9263L53.2759 64.2334ZM54.4658 65.069C54.5865 65.1481 54.7029 65.2279 54.8278 65.3031H54.4658V65.069ZM55.223 65.5497C55.3687 65.6287 55.5184 65.7039 55.6682 65.7792L54.7196 67.8018V66.4437L55.223 65.5497ZM57.5155 61.5635L57.7194 61.2084V61.4465L57.6653 61.5635H57.5155ZM58.148 62.349H58.2104V62.2028L58.2437 62.1317H58.356V62.349H58.4641L58.1687 63.1596L58.148 62.349ZM58.5224 62.1234H58.5557L58.5307 62.1944V62.1317L58.5224 62.1234ZM58.6431 61.8852C58.6293 61.866 58.6112 61.8503 58.5902 61.8394C58.5692 61.8285 58.546 61.8227 58.5224 61.8225H58.3976L59.5293 59.4326L58.6431 61.8852ZM58.227 59.5789C58.2478 59.4224 58.2241 59.2632 58.1585 59.1198C58.093 58.9763 57.9884 58.8545 57.8567 58.7683L60.5279 55.5762L60.4654 55.7056L58.227 59.5789ZM57.5073 58.572C57.3317 58.4464 57.1888 58.2801 57.0912 58.0873C56.9817 58.3057 56.8111 58.4872 56.6002 58.6095C56.3969 58.6705 56.221 58.8005 56.1026 58.9773C55.9842 59.1542 55.9307 59.3668 55.9512 59.5789H55.6266C55.5865 59.5799 55.5484 59.5967 55.5204 59.6256C55.4925 59.6544 55.4768 59.6932 55.4768 59.7335C55.4768 59.7733 55.4926 59.8116 55.5207 59.8398C55.5488 59.868 55.5869 59.8839 55.6266 59.8839H56.0219V60.1596C56.0448 60.1999 56.0698 60.239 56.0967 60.2766L53.538 63.3392H52.8847C52.5333 63.0154 52.1999 62.6723 51.8861 62.3114L60.2449 55.267L57.5073 58.572ZM50.5673 46.9315C50.8923 46.3843 51.2551 45.8608 51.6532 45.3647L60.0161 52.4091L50.5673 46.9315ZM59.7998 52.7601L49.5479 48.9997C49.7733 48.4036 50.0403 47.8242 50.3468 47.2658L59.7998 52.7601ZM59.6666 53.1277L48.9155 51.2225C49.0362 50.5967 49.2031 49.9808 49.4148 49.3799L59.6666 53.1277ZM59.6042 53.508H48.6825C48.6941 52.8708 48.7525 52.2354 48.8573 51.6069L59.6042 53.508ZM59.6042 53.9007L48.8573 55.8017C48.7525 55.1733 48.6941 54.5378 48.6825 53.9007H59.6042ZM41.4264 62.9967V62.3992C41.6801 62.9967 41.9631 63.5774 42.2584 64.1498C42.2128 64.1234 42.1613 64.109 42.1087 64.108H41.7425L41.676 63.9702V62.9967H41.4264ZM42.117 64.6428C42.1851 64.6442 42.2516 64.6216 42.3048 64.5788C42.358 64.536 42.3946 64.4759 42.4083 64.4089C42.4498 64.4882 42.4915 64.5718 42.5372 64.6512L42.1628 64.8685C42.1211 64.7932 42.0837 64.7139 42.0421 64.6428H42.117ZM42.3583 65.2025L42.4374 65.1571L42.3916 65.2651C42.3999 65.2442 42.3666 65.2234 42.3583 65.2025ZM44.2306 67.9188C44.0226 67.6595 43.8145 67.3921 43.6231 67.1246V66.548H43.7355C44.0489 66.9965 44.3776 67.4308 44.7216 67.8517L44.6342 67.9225L44.2306 67.9188ZM45.2749 67.889L46.8726 66.5443H50.5756V66.849L49.6769 67.9188H45.3123L45.2749 67.889ZM50.5756 67.4718V67.9352H50.1845L50.5756 67.4718ZM49.2109 68.4991L48.7948 68.9841H46.2527C46.0946 68.8255 45.9406 68.6623 45.7867 68.4991H49.2109ZM46.4482 70.3088V69.7738H46.5148L46.8768 70.1121V70.6932C46.7311 70.5591 46.5856 70.4339 46.4482 70.3088ZM47.6465 69.7738H48.0625V69.8446L47.684 70.3088L47.6465 70.2752V69.7738ZM49.2733 71.4449H49.0861L48.8448 71.2653V69.7947H49.2608L49.2733 71.4449ZM48.075 70.6678L47.9752 70.5881L48.075 70.4712V70.6678ZM49.7393 68.5073H53.1136L52.8348 68.9923H49.3315L49.7393 68.5073ZM53.5629 68.5073H54.3951L54.1662 68.9923H53.2592L53.5629 68.5073ZM55.7847 67.4211L55.7431 68.4783H55.4644C55.4246 68.4783 55.3865 68.4939 55.3584 68.5222C55.3304 68.5506 55.3146 68.5893 55.3146 68.6288C55.3146 68.669 55.3304 68.707 55.3584 68.7353C55.3865 68.7636 55.4246 68.7793 55.4644 68.7793H55.4435V68.9968H55.6058V68.7793H55.7306V69.1972H54.9567L55.7847 67.4211ZM58.4309 68.7793H58.5307V68.9968H58.6972V68.7793C58.7369 68.7793 58.775 68.7636 58.8031 68.7353C58.8312 68.707 58.847 68.669 58.847 68.6288C58.847 68.5893 58.8312 68.5506 58.8031 68.5222C58.775 68.4939 58.7369 68.4783 58.6972 68.4783H58.4226L58.356 66.8408C58.668 66.9242 58.9842 66.9995 59.3046 67.062L58.5391 71.4032L58.4309 68.7793ZM58.3352 66.4266L58.2437 64.2042L61.2601 55.8812L59.3671 66.6776C58.9967 66.586 58.6514 66.5018 58.3144 66.402L58.3352 66.4266ZM60.8981 51.6946L55.4394 42.2018C55.9947 41.8924 56.5718 41.6243 57.166 41.3996L60.8981 51.6946ZM57.528 41.2491C58.128 41.0372 58.7427 40.8696 59.3671 40.7478L61.2601 51.5442L57.528 41.2491ZM60.5612 51.8743L53.5463 43.4761C54.0393 43.0764 54.5608 42.7133 55.1065 42.3898L60.5612 51.8743ZM60.2658 52.1249L51.8861 45.0764C52.3013 44.5934 52.7504 44.1409 53.2301 43.7226L60.2658 52.1249ZM51.5908 44.8215L45.2749 39.4985C46.0132 38.6296 46.8187 37.8207 47.684 37.0793L52.9846 43.4218C52.4863 43.8533 52.0205 44.3211 51.5908 44.8215ZM51.3369 45.114C50.9227 45.6269 50.5472 46.1702 50.2136 46.7393L43.0656 42.5945C43.6446 41.6108 44.2984 40.6735 45.0211 39.7909L51.3369 45.114ZM50.0097 47.0736C49.6897 47.6501 49.4116 48.2492 49.1776 48.8659L41.4222 46.029C41.8211 44.9602 42.3038 43.925 42.8659 42.9329L50.0097 47.0736ZM49.0569 49.2378C48.8398 49.8611 48.6674 50.4992 48.541 51.1473L40.4195 49.71C40.6246 48.5849 40.9195 47.4783 41.3015 46.4008L49.0569 49.2378ZM48.4828 51.5316C48.3747 52.1823 48.3148 52.8401 48.3039 53.4996H40.4403C40.2613 53.2614 40.1157 53.0818 40.07 53.0191C40.0987 52.0389 40.1932 51.0618 40.3529 50.0944L48.4828 51.5316ZM39.9701 57.3811L39.7579 57.4188V56.8798C39.7582 56.8371 39.7681 56.795 39.7868 56.7566C39.8055 56.7183 39.8326 56.6846 39.8661 56.6583C39.9035 56.8881 39.9036 57.1305 39.9618 57.356L39.9701 57.3811ZM40.4195 59.4702C40.4611 59.6332 40.511 59.7961 40.5568 59.9549H40.1074C40.0617 59.7961 40.0158 59.6332 39.9743 59.4702H40.4195ZM39.8411 64.6679L39.8785 65.5244H39.5957L39.5041 64.6679H39.8411ZM40.1573 68.7711V69.6316H39.9701V68.7711H40.1573ZM41.0186 64.6679H41.1517C41.185 64.7306 41.2183 64.8016 41.2516 64.8685C41.1641 64.8373 41.0734 64.8162 40.9811 64.8057L41.0186 64.6679ZM41.6177 68.7711H41.8257L41.6593 69.6316H41.4721L41.6177 68.7711ZM41.805 68.2399V66.3766C41.868 66.2664 41.9116 66.1464 41.9339 66.0213C42.0629 66.2306 42.2044 66.4392 42.35 66.6359V68.219L41.805 68.2399ZM43.0531 68.2399C43.1106 68.2414 43.1673 68.254 43.2196 68.2779C43.0858 68.2868 42.9555 68.3241 42.8368 68.3867C42.7993 68.339 42.7512 68.3002 42.6962 68.2749C42.6412 68.2496 42.581 68.2377 42.5205 68.2399H43.0531ZM44.7174 68.5073H45.2957C45.4414 68.6705 45.587 68.8337 45.7409 68.9923H45.1501C44.9878 68.8083 44.8422 68.637 44.7008 68.4828L44.7174 68.5073ZM45.2624 70.2454C45.4039 70.3877 45.5496 70.5218 45.6785 70.6634V71.4494H45.2624V70.2454ZM49.1901 76.0952H48.4454V75.4895H49.0403L49.0736 75.5185C49.1194 75.704 49.1528 75.8925 49.1735 76.0825L49.1901 76.0952ZM48.7075 74.708H48.4454V74.2528C48.545 74.372 48.6327 74.5009 48.7075 74.6372V74.708ZM48.7075 74.7959C48.7246 75.0194 48.8121 75.2317 48.9571 75.4016H48.4454V74.7959H48.7075ZM47.7547 76.0952V75.4895H48.358V76.0952H47.7547ZM48.358 76.1831V76.8804H47.7547V76.1578L48.358 76.1831ZM47.7547 75.4016V74.7959H48.358V75.4016H47.7547ZM47.7547 74.708V74.1023H48.3163L48.358 74.1485V74.708H47.7547ZM47.7547 74.0144V73.6508C47.9253 73.7581 48.0842 73.8825 48.229 74.0226L47.7547 74.0144ZM47.0682 74.708V74.1023H47.6673V74.708H47.0682ZM47.6673 74.7959V75.4016H47.0682V74.7959H47.6673ZM47.0682 74.0144V73.3335C47.2775 73.3953 47.4787 73.4825 47.6673 73.5927V74.0107L47.0682 74.0144ZM47.0682 75.4895H47.6673V76.0952H47.0682V75.4895ZM48.4454 76.8804V76.1578H49.1984C49.2293 76.3894 49.2445 76.6226 49.2442 76.8558L48.4454 76.8804ZM49.7934 72.3977C50.0514 72.5646 50.3093 72.7278 50.5715 72.8865L50.3592 73.2582C50.1678 73.1457 49.9806 73.0288 49.7934 72.9118V72.3977ZM50.068 72.1176V71.9463H50.3051V71.4404H50.0638V69.7694H50.4799V71.4404H50.6837V72.4894L50.068 72.1176ZM53.6378 69.7902H53.7834L53.6378 70.0957V69.7902ZM54.4283 71.462C54.9027 71.462 54.8444 70.831 54.8444 70.831C54.9003 70.8191 54.9529 70.7945 54.9978 70.7595C55.0427 70.7237 55.0789 70.6783 55.1035 70.6269C55.1281 70.5747 55.1404 70.5181 55.1395 70.4607C55.1385 70.4034 55.1244 70.3468 55.0982 70.2961C55.2159 70.2834 55.3243 70.2261 55.4017 70.1359C55.4789 70.0465 55.5191 69.9303 55.5143 69.8111L55.7098 69.5645L55.6848 70.1747L54.4616 73.5465L54.4283 71.462ZM55.6016 71.462L55.4852 74.3616H55.2979C55.2582 74.3616 55.2201 74.3772 55.192 74.4055C55.1639 74.4338 55.1481 74.4718 55.1481 74.512C55.1462 74.5269 55.1462 74.5426 55.1481 74.5575L54.5407 74.3526L55.6016 71.462ZM58.693 75.7398C59.6581 75.8769 60.6309 75.9506 61.6054 75.9618V76.379C60.631 76.3708 59.6581 76.2978 58.693 76.1622V75.7398ZM58.693 75.3435L58.6639 74.6327H58.7221V74.8458H58.8886V74.6327C58.9283 74.6327 58.9664 74.6171 58.9945 74.5888C59.0226 74.5605 59.0383 74.5225 59.0383 74.4822C59.0383 74.4428 59.0226 74.404 58.9945 74.3765C58.9664 74.3481 58.9283 74.3318 58.8886 74.3318H58.6265L58.5806 73.212L59.6541 67.112C60.302 67.2207 60.957 67.2811 61.6138 67.2915V75.5729C60.6301 75.5573 59.6486 75.4731 58.6764 75.3226L58.693 75.3435ZM59.7457 66.7275L61.6387 55.9355V66.9034C60.9984 66.8847 60.3602 66.8207 59.729 66.7112L59.7457 66.7275ZM59.7457 40.6976C60.3718 40.5946 61.0044 40.5359 61.6387 40.5221V51.4899L59.7457 40.6976ZM59.6791 40.3132L58.2104 32.1324C59.3326 31.9443 60.4677 31.8452 61.6054 31.8357V40.1168C60.9544 40.1307 60.3051 40.1908 59.6625 40.2965L59.6791 40.3132ZM59.2963 40.3717C58.651 40.4986 58.0156 40.6717 57.3949 40.8898L54.5698 33.1017C55.6421 32.7205 56.7425 32.4243 57.8608 32.2159L59.2963 40.3717ZM57.7194 31.4053L57.7943 31.8231C56.6528 32.0333 55.53 32.3351 54.4367 32.7256L54.291 32.3078C55.4031 31.9139 56.5437 31.6066 57.7028 31.3886L57.7194 31.4053ZM57.0287 41.0151C56.4128 41.2492 55.8148 41.5285 55.2397 41.8508L51.1207 34.681C52.1075 34.1135 53.1386 33.6273 54.2037 33.227L57.0287 41.0151ZM53.9249 32.4499L54.0705 32.8677C52.9853 33.2794 51.9337 33.7754 50.9251 34.351L50.7087 33.9749C51.7334 33.3812 52.8032 32.8699 53.9082 32.4457L53.9249 32.4499ZM50.7836 34.869L54.8819 42.043C54.3151 42.378 53.7741 42.7551 53.2634 43.1711L47.9752 36.8286C48.8533 36.1019 49.7867 35.4453 50.7669 34.8649L50.7836 34.869ZM50.3675 34.1587L50.5797 34.5348C49.5812 35.1258 48.6298 35.7935 47.7339 36.5319L47.4593 36.2018C48.3707 35.4438 49.3404 34.7592 50.3592 34.1546L50.3675 34.1587ZM47.1639 36.4568L47.4426 36.791C46.5608 37.5478 45.7387 38.3719 44.9837 39.2561L44.655 38.9762C45.4232 38.076 46.2592 37.2366 47.1556 36.4651L47.1639 36.4568ZM44.4012 39.2729L44.7299 39.5486C43.9936 40.4501 43.3274 41.4069 42.737 42.4107L42.3666 42.1934C42.9642 41.1664 43.6418 40.1884 44.3929 39.2686L44.4012 39.2729ZM42.1711 42.5318L42.5456 42.7449C41.9724 43.7592 41.4785 44.8167 41.0685 45.9078L40.6524 45.7574C41.069 44.6419 41.5741 43.5619 42.1628 42.5276L42.1711 42.5318ZM40.5318 46.1251L40.9478 46.2713C40.5627 47.3705 40.2623 48.4978 40.0491 49.6431L39.6331 49.5679C39.839 48.3971 40.1367 47.2445 40.5235 46.1209L40.5318 46.1251ZM39.5457 49.9523L39.9618 50.0275C39.7718 51.1767 39.6702 52.3389 39.658 53.5038H39.242C39.2471 52.3126 39.3459 51.1237 39.5374 49.9481L39.5457 49.9523ZM39.3918 53.8966L39.242 54.118C39.242 54.0427 39.242 53.9717 39.242 53.8966H39.3918ZM27.1095 68.219H26.6643V65.5035H27.1095V68.219ZM28.5658 68.219H28.1164V65.5035H28.5658V68.219ZM30.022 68.219H29.5727V65.5035H30.022V68.219ZM31.474 68.219H31.0289V65.5035H31.474V68.219ZM32.9303 68.219H32.4809V65.5035H32.9303V68.219ZM34.3865 68.219H33.9372V65.5035H34.3865V68.219ZM35.8386 68.219H35.3934V65.5035H35.8386V68.219ZM36.575 63.686H27.3883V61.1499H36.575V63.686ZM37.2948 68.219H36.8496V65.5035H37.2948V68.219ZM37.12 64.3796C37.1211 64.3083 37.1501 64.2403 37.2007 64.1903C37.2514 64.1402 37.3195 64.1122 37.3905 64.1122H37.7816V62.9967H38.0146V60.661L37.7858 60.2975L37.5652 59.9299H38.0146V59.4452H37.9398C37.9178 59.4441 37.8964 59.4387 37.8767 59.4293C37.8568 59.4199 37.8391 59.4067 37.8244 59.3903C37.8097 59.374 37.7983 59.355 37.791 59.3343C37.7837 59.3136 37.7805 59.2916 37.7816 59.2696C37.7805 59.2477 37.7837 59.2258 37.791 59.2051C37.7983 59.1843 37.8097 59.1653 37.8244 59.149C37.8391 59.1327 37.8568 59.1195 37.8767 59.1101C37.8964 59.1007 37.9178 59.0952 37.9398 59.0942H38.0146V58.9646C38.081 58.9709 38.1479 58.9709 38.2143 58.9646C38.3781 58.933 38.5321 58.8628 38.6637 58.7599V59.1067H38.5805C38.5341 59.1067 38.4896 59.1252 38.4569 59.1581C38.4241 59.191 38.4057 59.2357 38.4057 59.2822C38.4057 59.3287 38.4241 59.3733 38.4569 59.4063C38.4896 59.4392 38.5341 59.4577 38.5805 59.4577H39.1671L39.2919 59.9424H38.156L38.6637 60.6735V61.0579C38.4861 61.1447 38.3365 61.2798 38.2318 61.4479C38.1271 61.6159 38.0715 61.8102 38.0715 62.0085C38.0715 62.2067 38.1271 62.401 38.2318 62.5691C38.3365 62.7372 38.4861 62.8723 38.6637 62.959V63.0092H38.4057V64.1206H37.9897C37.9547 64.1206 37.92 64.1275 37.8878 64.1409C37.8554 64.1543 37.8261 64.1741 37.8013 64.1989C37.7766 64.2237 37.757 64.2532 37.7436 64.2857C37.7303 64.3181 37.7233 64.3529 37.7233 64.3879C37.7233 64.4231 37.7303 64.4578 37.7436 64.4903C37.757 64.5227 37.7766 64.5522 37.8013 64.577C37.8261 64.6019 37.8554 64.6216 37.8878 64.635C37.92 64.6485 37.9547 64.6554 37.9897 64.6554H37.4071C37.3695 64.6577 37.3318 64.6521 37.2965 64.639C37.2612 64.6259 37.229 64.6055 37.202 64.5791C37.1749 64.5528 37.1537 64.5211 37.1396 64.486C37.1255 64.4509 37.1188 64.4132 37.12 64.3754V64.3796ZM38.4806 68.7502L38.6262 69.6107H38.4348L38.2725 68.7502H38.4806ZM37.9772 64.647H38.3184L38.6012 65.5035H38.3184L37.9772 64.647ZM38.0146 69.6107L37.8857 69.0758L37.8149 68.7875V68.7502H38.0229L38.2101 69.6107H38.0229H38.0146ZM38.9383 81.0509H38.1977V70.7893H38.9383V81.0509ZM38.8592 69.6107L38.7385 68.7502H38.9466L39.0464 69.6107H38.8592ZM38.9508 65.5035L38.7385 64.647H39.0714L39.2295 65.5035H38.9508ZM39.475 68.7502H39.683L39.7163 69.6107H39.5249L39.475 68.7502ZM40.4153 81.0509H39.6747V70.7893H40.4153V81.0509ZM40.5609 69.6107H40.3737L40.407 68.7502H40.615L40.5609 69.6107ZM41.1434 68.7502H41.3514L41.2266 69.6107H41.0394L41.1434 68.7502ZM41.8882 71.424V81.0338H41.1517V70.7893H41.8882V71.424ZM41.9339 69.6107H41.884L41.9339 69.3932V69.6107ZM42.1794 69.1928H41.9838L42.0796 68.7748H42.3999C42.3574 68.8441 42.3238 68.9186 42.3001 68.9968H42.2169L42.1794 69.1928ZM44.8963 76.8685H43.9352C43.9352 76.6174 43.956 76.388 43.981 76.1704H44.8963V76.8685ZM44.8963 76.0825H43.9935C44.0204 75.8784 44.0607 75.6757 44.1141 75.4768H44.8963V76.0825ZM44.8963 75.3889H44.1432C44.2035 75.1803 44.2829 74.9777 44.3804 74.7832H44.8963V75.3889ZM44.8963 74.6953H44.4303C44.5425 74.4763 44.6823 74.2729 44.8463 74.0896H44.8963V74.6953ZM45.587 76.8685H44.9796V76.1578H45.5829L45.587 76.8685ZM45.587 76.0825H44.9796V75.4768H45.5829L45.587 76.0825ZM45.587 75.3889H44.9796V74.7832H45.5829L45.587 75.3889ZM45.587 74.6953H44.9796V74.0896H45.5829L45.587 74.6953ZM45.587 74.0017H44.9796V73.9727C45.161 73.8065 45.3639 73.6665 45.5829 73.5547L45.587 74.0017ZM46.2776 76.8685H45.6743V76.1578H46.2776V76.8685ZM46.2776 76.0825H45.6743V75.4768H46.2776V76.0825ZM46.2776 75.3889H45.6743V74.7832H46.2776V75.3889ZM46.2776 74.6953H45.6743V74.0896H46.2776V74.6953ZM45.6743 74.0017V73.4921C45.8218 73.4214 45.9749 73.3625 46.132 73.3171C46.1804 73.3208 46.2292 73.3208 46.2776 73.3171V73.9898L45.6743 74.0017ZM46.9642 76.8685H46.365V76.1578H46.9766L46.9642 76.8685ZM46.9642 76.0825H46.365V75.4768H46.9766L46.9642 76.0825ZM46.9642 75.3889H46.365V74.7832H46.9766L46.9642 75.3889ZM46.9642 74.6953H46.365V74.0896H46.9766L46.9642 74.6953ZM46.9642 74.0017H46.365V73.329C46.4874 73.323 46.6075 73.2932 46.7187 73.2418C46.7811 73.2418 46.8643 73.2664 46.9642 73.2962V74.0017ZM47.0556 76.8685V76.1578H47.6549V76.8558L47.0556 76.8685ZM49.7975 78.2013V75.7398C49.9737 75.7324 50.145 75.6802 50.2957 75.5878C50.4462 75.4962 50.5712 75.3673 50.6588 75.2138C50.6581 75.1982 50.6581 75.1833 50.6588 75.1676V76.3254L49.7975 78.2013ZM54.4325 75.1341V74.6745C54.7737 74.7959 55.1148 74.9047 55.4602 75.009V75.456C55.0982 75.3554 54.7612 75.2474 54.4283 75.1341H54.4325ZM59.342 80.6285H58.8969L58.7471 76.9519C59.5421 77.0577 60.342 77.1233 61.1436 77.1479C61.026 77.2462 60.931 77.3684 60.8656 77.507C60.8002 77.6455 60.7659 77.7968 60.765 77.9502C60.756 78.0948 60.7765 78.24 60.8254 78.3764C60.8744 78.5127 60.9506 78.6379 61.0494 78.7437C61.1482 78.8494 61.2676 78.9336 61.4 78.991C61.5325 79.0483 61.6754 79.0782 61.8197 79.0782C61.9641 79.0782 62.107 79.0483 62.2394 78.991C62.3719 78.9336 62.4912 78.8494 62.5901 78.7437C62.6889 78.6379 62.7651 78.5127 62.814 78.3764C62.8629 78.24 62.8835 78.0948 62.8745 77.9502C62.8744 77.7975 62.8408 77.6463 62.7761 77.5077C62.7114 77.3691 62.6171 77.2462 62.5 77.1479C62.916 77.1479 63.3571 77.1106 63.7815 77.0726L63.6192 80.6285H59.342ZM66.4151 80.6285L66.3319 78.5857C66.5247 78.5246 66.6955 78.4084 66.8239 78.2512C66.9521 78.0947 67.0324 77.904 67.0549 77.7021C67.0774 77.5002 67.041 77.2969 66.9504 77.1151C66.8598 76.934 66.7187 76.7828 66.5442 76.68C67.2987 76.5198 68.0445 76.3202 68.7784 76.0825V80.6285H66.4151ZM71.2041 80.6285H69.4441V78.5395C69.4302 78.1573 69.4752 77.7751 69.5772 77.4071C69.7074 77.4786 69.8512 77.5211 69.999 77.5315C70.1468 77.5427 70.2953 77.5211 70.4343 77.4697C70.6296 77.4012 70.7994 77.2745 70.9211 77.1061C71.0709 77.2983 71.2083 77.6619 71.2083 78.5395L71.2041 80.6285ZM70.4551 75.5103H70.4343C70.6923 75.406 70.9503 75.2891 71.2041 75.1758V75.5185L70.4551 75.5103ZM71.8822 80.6285V75.8903L72.1984 76.563V80.6285H71.8822ZM73.3593 79.02L74.1207 80.6285H73.3593V79.02ZM77.3494 80.6285V73.329C77.4291 73.3312 77.5088 73.323 77.5863 73.3044V80.6285H77.3494ZM84.0477 80.6285H82.4541V78.5395C82.4466 78.4293 82.4615 78.319 82.4981 78.2154C82.5338 78.1111 82.5919 78.0158 82.6664 77.9353C82.7409 77.8549 82.8318 77.79 82.9324 77.7461C83.033 77.7021 83.1417 77.6798 83.2513 77.6798C83.3608 77.6798 83.4695 77.7021 83.5701 77.7461C83.6707 77.79 83.7616 77.8549 83.8361 77.9353C83.9106 78.0158 83.9679 78.1111 84.0044 78.2154C84.0409 78.319 84.0558 78.4293 84.0477 78.5395V80.6285ZM84.0477 75.7026H82.4541V74.4197C82.469 74.2178 82.5591 74.0285 82.7074 73.89C82.8549 73.7521 83.0494 73.6754 83.2513 73.6754C83.4531 73.6754 83.6476 73.7521 83.7951 73.89C83.9434 74.0285 84.0335 74.2178 84.0477 74.4197V75.7026ZM87.1059 80.6285H86.5024V74.6163C86.5024 71.6915 83.9396 71.9753 83.2617 70.7766C82.5793 71.9753 80.0165 71.6915 80.0165 74.6163V80.6285H79.4048V69.7657C79.4637 69.899 79.5523 70.0175 79.6626 70.1121C79.7691 70.2015 79.8913 70.2693 80.0239 70.311C80.1558 70.352 80.2951 70.3676 80.4329 70.3549C80.5707 70.3423 80.7048 70.3028 80.8278 70.238C80.9507 70.1739 81.0595 70.0853 81.1481 69.9787C81.2599 69.8454 81.3359 69.6859 81.3686 69.5146H87.1141L87.1059 80.6285ZM93.118 80.6285H92.1115V79.4544C92.1175 79.3918 92.11 79.3285 92.0907 79.2689C92.0706 79.2093 92.0385 79.1541 91.9968 79.108C91.9543 79.061 91.9029 79.0238 91.8456 78.9984C91.7889 78.9731 91.7264 78.9597 91.6638 78.9597C91.6012 78.9597 91.5394 78.9731 91.482 78.9984C91.4246 79.0238 91.3732 79.061 91.3315 79.108C91.2891 79.1541 91.257 79.2093 91.2376 79.2689C91.2175 79.3285 91.2108 79.3918 91.2168 79.4544V80.6285H90.2058V78.5395C90.2058 77.2611 90.6886 77.0771 91.038 76.9139C91.2645 76.794 91.4798 76.6539 91.6824 76.4967C91.8873 76.6532 92.1041 76.7932 92.3321 76.9139C92.6561 77.0771 93.1389 77.2611 93.1389 78.5395L93.118 80.6285ZM93.118 75.5103H92.1115V74.3489C92.1175 74.2863 92.11 74.223 92.0907 74.1634C92.0706 74.1038 92.0385 74.0487 91.9968 74.0017C91.9543 73.9555 91.9029 73.9183 91.8456 73.893C91.7889 73.8676 91.7264 73.8542 91.6638 73.8542C91.6012 73.8542 91.5394 73.8676 91.482 73.893C91.4246 73.9183 91.3732 73.9555 91.3315 74.0017C91.2891 74.0487 91.257 74.1038 91.2376 74.1634C91.2175 74.223 91.2108 74.2863 91.2168 74.3489V75.5103H90.2058V73.4214C90.2058 72.1385 90.6886 71.9545 91.038 71.7921C91.2645 71.6714 91.4798 71.5313 91.6824 71.3741C91.8873 71.5313 92.1041 71.6706 92.3321 71.7921C92.6561 71.9545 93.1389 72.1385 93.1389 73.4214L93.118 75.5103ZM97.0419 80.6285H95.2778V78.5395C95.2778 77.2611 95.5691 77.0771 95.7687 76.9139C95.9103 76.7865 96.0414 76.6465 96.1599 76.4967C96.2768 76.6472 96.4079 76.7873 96.551 76.9139C96.7462 77.0771 97.0419 77.2611 97.0419 78.5395V80.6285ZM97.0419 75.5103H95.2778V73.4214C95.2778 72.1385 95.5691 71.9545 95.7687 71.7921C95.9103 71.6639 96.0414 71.5239 96.1599 71.3741C96.2768 71.5253 96.4079 71.6647 96.551 71.7921C96.7462 71.9545 97.0419 72.1385 97.0419 73.4214V75.5103ZM101.382 66.1301H100.965V65.4365C100.962 65.3895 100.97 65.3426 100.989 65.3001C101.008 65.2569 101.037 65.2197 101.073 65.1899C101.073 65.1616 101.085 65.134 101.105 65.1131C101.125 65.093 101.153 65.0815 101.181 65.0815C101.21 65.0815 101.238 65.093 101.258 65.1131C101.278 65.134 101.29 65.1616 101.29 65.1899C101.326 65.2197 101.355 65.2577 101.373 65.3001C101.392 65.3433 101.4 65.3903 101.398 65.4365L101.382 66.1301ZM101.963 66.1301H101.548V65.4365C101.544 65.3895 101.552 65.3426 101.572 65.3001C101.59 65.2569 101.619 65.2197 101.656 65.1899C101.656 65.1616 101.667 65.134 101.688 65.1131C101.708 65.093 101.735 65.0815 101.764 65.0815C101.793 65.0815 101.82 65.093 101.84 65.1131C101.861 65.134 101.873 65.1616 101.873 65.1899C101.908 65.2197 101.937 65.2577 101.956 65.3001C101.975 65.3433 101.983 65.3903 101.981 65.4365L101.963 66.1301ZM109.328 61.5802H108.758V60.6568C108.754 60.5947 108.765 60.5325 108.791 60.4756C108.816 60.4188 108.855 60.3691 108.904 60.3309C108.957 60.2802 109.004 60.2242 109.045 60.1638C109.085 60.2256 109.133 60.2817 109.187 60.3309C109.235 60.3696 109.273 60.4195 109.298 60.4762C109.323 60.5331 109.333 60.5951 109.328 60.6568V61.5802ZM110.094 61.5802H109.524V60.6568C109.52 60.5951 109.531 60.5335 109.556 60.4769C109.58 60.4203 109.618 60.3702 109.665 60.3309C109.72 60.2808 109.769 60.2248 109.81 60.1638C109.85 60.2256 109.898 60.2817 109.952 60.3309C110 60.3696 110.038 60.4195 110.063 60.4762C110.088 60.5331 110.098 60.5951 110.094 60.6568V61.5802ZM114.695 60.9535C114.942 60.9535 115.183 61.027 115.389 61.1647C115.594 61.3025 115.754 61.4982 115.849 61.7273C115.943 61.9563 115.968 62.2084 115.919 62.4515C115.871 62.6946 115.753 62.918 115.578 63.0933C115.403 63.2686 115.181 63.3879 114.939 63.4364C114.697 63.4847 114.446 63.4599 114.218 63.365C113.989 63.2701 113.795 63.1094 113.658 62.9033C113.521 62.6972 113.447 62.4548 113.447 62.207C113.445 62.0413 113.477 61.8769 113.538 61.7234C113.6 61.5699 113.692 61.4302 113.808 61.3125C113.924 61.1948 114.062 61.1013 114.215 61.0375C114.367 60.9738 114.53 60.9409 114.695 60.941V60.9535ZM110.772 68.4746L110.71 66.8743L110.789 66.9659L110.772 68.4746ZM110.684 66.615V66.2641H111.645L111.791 66.615H110.684ZM110.585 62.3657V62.1485H110.73V62.3657H110.776V65.917H110.634L110.493 62.3657H110.585ZM117.453 80.478H112.099V72.0007H117.45L117.453 80.478ZM117.453 70.6053H112.099V66.9659H117.45L117.453 70.6053ZM117.453 65.917H112.099V64.4172H117.45L117.453 65.917ZM117.708 64.0913H111.774L111.629 63.7403H117.87L117.708 64.0913Z" fill="#1FC0E8"/>
  <path d="M140.362 66.2428V65.8964H139.892V60.498H131.891V65.8964H131.475V66.2428H132.802L132.944 66.5937H131.621L131.875 66.9453V70.5839H131.458L131.605 70.9356L131.858 71.282V71.65H131.605V72.0009H131.858V84.4223H133.181V81.3678H138.532V84.4223H139.859V72.0009H140.183V71.65H139.859V71.282L140.183 70.9356L140.329 70.5839H139.859V66.9662L140.183 66.6153H138.86L139.002 66.2637L140.362 66.2428ZM135.969 60.9409C136.215 60.9409 136.457 61.0145 136.662 61.1522C136.867 61.29 137.027 61.4857 137.122 61.7148C137.217 61.9438 137.241 62.1958 137.193 62.439C137.145 62.6821 137.026 62.9054 136.852 63.0807C136.676 63.256 136.454 63.3755 136.212 63.4238C135.97 63.4722 135.719 63.4474 135.491 63.3524C135.263 63.2576 135.068 63.0969 134.931 62.8908C134.794 62.6847 134.721 62.4423 134.721 62.1944C134.721 61.862 134.852 61.5431 135.086 61.3081C135.321 61.073 135.638 60.9409 135.969 60.9409ZM138.565 80.4574H133.214V72.0009H138.565V80.4574ZM138.565 70.5839H133.214V66.9662H138.565V70.5839ZM138.565 65.8964H133.214V64.4172H138.565V65.8964ZM132.96 64.0705L132.819 63.7195H139.035L138.894 64.0705H132.96Z" fill="#1FC0E8"/>
  <path d="M137.725 67.7051H134.059V69.6018H137.725V67.7051Z" fill="#1FC0E8"/>
  <path d="M137.725 64.7227H134.059V65.4953H137.725V64.7227Z" fill="#1FC0E8"/>
  <path d="M135.969 63.1222C136.151 63.1214 136.328 63.0665 136.479 62.9645C136.63 62.8626 136.747 62.7181 136.816 62.5493C136.885 62.3805 136.902 62.195 136.867 62.0161C136.83 61.8373 136.742 61.6731 136.614 61.5444C136.485 61.4157 136.321 61.3282 136.143 61.2928C135.964 61.2575 135.78 61.2761 135.612 61.3461C135.444 61.4161 135.301 61.5344 135.2 61.6862C135.1 61.838 135.046 62.0163 135.046 62.1988C135.046 62.3204 135.07 62.4408 135.116 62.5532C135.162 62.6654 135.231 62.7674 135.316 62.8532C135.402 62.939 135.504 63.0069 135.616 63.0531C135.728 63.0992 135.848 63.1227 135.969 63.1222Z" fill="#1FC0E8"/>
  <path d="M125.775 61.4129H125.68L125.596 62.2485H125.101L125.018 61.4129H124.922L124.885 61.0703H119.397V65.8961H119.7V66.2261L119.539 66.6105H119.638L119.397 66.945V70.5843H119.813L119.667 70.9352L119.413 71.2817V71.6497H119.667V72.0006H119.413V84.422H120.529V66.9405L120.757 66.5226H120.666C120.794 65.493 121.292 64.5463 122.066 63.8599C122.841 63.1734 123.839 62.7951 124.872 62.7959H125.829C126.863 62.7951 127.86 63.1734 128.635 63.8599C129.41 64.5463 129.907 65.493 130.036 66.5226H129.944L130.173 66.9405C130.173 66.9785 130.173 67.0158 130.173 67.0575V84.422H131.283V72.0006H131.022V71.6497H131.275V71.2817L131.022 70.9352L130.88 70.5843H131.275V66.9659L131.055 66.6314H131.134L130.976 66.2469V65.9169H131.275V61.0703H125.817L125.775 61.4129ZM125.854 61.6052C127.056 61.5891 128.223 62.0174 129.131 62.8085C130.039 63.5997 130.626 64.6986 130.781 65.8961V66.2641L130.842 66.4183H130.19C130.031 65.3738 129.516 64.4169 128.733 63.711C127.93 62.9955 126.895 62.5988 125.821 62.5953H124.864C123.79 62.5973 122.754 62.9941 121.952 63.711C121.166 64.4154 120.649 65.3731 120.491 66.4183H119.846L119.913 66.2641V65.8961C120.066 64.699 120.652 63.6001 121.56 62.8088C122.467 62.0176 123.633 61.5891 124.835 61.6052H124.864L124.947 62.4199H125.779L125.862 61.6052H125.854Z" fill="#1FC0E8"/>
  <path d="M9.46825 84.0056C8.81205 80.2203 8.48217 76.3857 8.48217 72.5445C8.48217 35.9017 38.1684 6.11124 74.6365 6.11124C111.104 6.11124 140.791 35.9226 140.791 72.5654C140.791 76.4073 140.461 80.2411 139.805 84.0265H141.914C142.552 80.2396 142.872 76.4059 142.871 72.5654C142.871 34.7736 112.253 4.04297 74.6365 4.04297C37.0201 4.04297 6.40186 34.7945 6.40186 72.5862C6.40087 76.4267 6.72099 80.2605 7.35882 84.0473L9.46825 84.0056Z" fill="#1FC0E8"/>
  <path d="M135.269 19.0587C138.576 19.0587 141.255 16.3732 141.255 13.0625C141.255 9.75191 138.576 7.06641 135.269 7.06641C131.961 7.06641 129.282 9.75191 129.282 13.0625C129.282 16.3732 131.961 19.0587 135.269 19.0587Z" stroke="black" strokeWidth="1.5"/>
  <path d="M130.745 12.0262V11.25H134.081V12.0262H132.884V15.2045H131.943V12.0262H130.745Z" fill="black"/>
  <path d="M134.547 11.25H135.729L136.732 13.6984H136.778L137.78 11.25H138.961V15.2045H138.032V12.7754H138L137.051 15.1794H136.458L135.509 12.7618H135.476V15.2045H134.547V11.25Z" fill="black"/>
  </g>
  </svg>
  